<svg width="181" height="52" viewBox="0 0 181 52" fill="none" xmlns="http://www.w3.org/2000/svg">
<path d="M179.753 46.003C179.753 48.7742 177.461 51.0189 174.627 51.0189H6.88499C4.05206 51.0189 1.75256 48.7742 1.75256 46.003V6.0035C1.75256 3.23367 4.05206 0.981133 6.88499 0.981133H174.625C177.461 0.981133 179.751 3.23367 179.751 6.0035L179.753 46.003Z" fill="black"/>
<path d="M174.086 1.04162C177.173 1.04162 179.684 3.4905 179.684 6.5V45.5C179.684 48.5095 177.173 50.9584 174.086 50.9584H7.41923C4.33256 50.9584 1.8209 48.5095 1.8209 45.5V6.5C1.8209 3.4905 4.33256 1.04162 7.41923 1.04162H174.086ZM174.086 2.74817e-06H7.41923C3.75423 2.74817e-06 0.752563 2.92663 0.752563 6.5V45.5C0.752563 49.0734 3.75423 52 7.41923 52H174.086C177.751 52 180.753 49.0734 180.753 45.5V6.5C180.753 2.92663 177.751 2.74817e-06 174.086 2.74817e-06Z" fill="#A6A6A6"/>
<path d="M40.9232 25.7192C40.8846 21.5293 44.4419 19.4909 44.6046 19.396C42.5899 16.5321 39.4672 16.1408 38.3699 16.1096C35.7472 15.8405 33.2032 17.6397 31.8672 17.6397C30.5046 17.6397 28.4472 16.1356 26.2299 16.1798C23.3766 16.2227 20.7072 17.8334 19.2432 20.3346C16.2219 25.4345 18.4752 32.929 21.3699 37.0513C22.8179 39.0702 24.5099 41.3244 26.7246 41.2451C28.8912 41.158 29.7006 39.8983 32.3152 39.8983C34.9059 39.8983 35.6659 41.2451 37.9246 41.1944C40.2499 41.158 41.7139 39.1664 43.1112 37.1293C44.7846 34.8153 45.4566 32.5364 45.4832 32.4194C45.4286 32.4012 40.9672 30.7411 40.9232 25.7192Z" fill="white"/>
<path d="M36.6566 13.3978C37.8219 11.9769 38.6192 10.0438 38.3979 8.08208C36.7112 8.15488 34.6019 9.21958 33.3872 10.6093C32.3126 11.8339 31.3526 13.8411 31.6006 15.7287C33.4952 15.8665 35.4406 14.7966 36.6566 13.3978Z" fill="white"/>
<path d="M72.2792 40.9552H69.2512L67.5926 35.8735H61.8272L60.2472 40.9552H57.2992L63.0112 23.6548H66.5392L72.2792 40.9552ZM67.0926 33.7415L65.5926 29.224C65.4339 28.7625 65.1366 27.6757 64.6979 25.9649H64.6446C64.4699 26.7007 64.1886 27.7875 63.8019 29.224L62.3286 33.7415H67.0926Z" fill="white"/>
<path d="M86.9686 34.5644C86.9686 36.686 86.3805 38.363 85.2045 39.5941C84.1512 40.69 82.8432 41.2373 81.2819 41.2373C79.5965 41.2373 78.3859 40.6471 77.6485 39.4667H77.5952V46.0382H74.7525V32.5871C74.7525 31.2533 74.7166 29.8844 74.6472 28.4804H77.1472L77.3059 30.4577H77.3592C78.3072 28.9679 79.7459 28.2243 81.6765 28.2243C83.1859 28.2243 84.4459 28.8054 85.4539 29.9689C86.4646 31.1337 86.9686 32.6651 86.9686 34.5644ZM84.0726 34.6658C84.0726 33.4516 83.7926 32.4506 83.2299 31.6628C82.6152 30.8412 81.7899 30.4304 80.7552 30.4304C80.0539 30.4304 79.4165 30.6592 78.8472 31.1103C78.2765 31.5653 77.9032 32.1594 77.7285 32.8952C77.6405 33.2384 77.5965 33.5192 77.5965 33.7402V35.8202C77.5965 36.7276 77.8819 37.4933 78.4526 38.1186C79.0232 38.7439 79.7645 39.0559 80.6765 39.0559C81.7472 39.0559 82.5805 38.6529 83.1765 37.8495C83.7739 37.0448 84.0726 35.984 84.0726 34.6658Z" fill="white"/>
<path d="M101.685 34.5644C101.685 36.686 101.097 38.363 99.9192 39.5941C98.8672 40.69 97.5592 41.2373 95.9979 41.2373C94.3126 41.2373 93.1019 40.6471 92.3659 39.4667H92.3126V46.0382H89.4699V32.5871C89.4699 31.2533 89.4339 29.8844 89.3646 28.4804H91.8646L92.0232 30.4577H92.0766C93.0232 28.9679 94.4619 28.2243 96.3939 28.2243C97.9019 28.2243 99.1619 28.8054 100.173 29.9689C101.179 31.1337 101.685 32.6651 101.685 34.5644ZM98.7886 34.6658C98.7886 33.4516 98.5072 32.4506 97.9446 31.6628C97.3299 30.8412 96.5072 30.4304 95.4712 30.4304C94.7686 30.4304 94.1326 30.6592 93.5619 31.1103C92.9912 31.5653 92.6192 32.1594 92.4446 32.8952C92.3579 33.2384 92.3126 33.5192 92.3126 33.7402V35.8202C92.3126 36.7276 92.5979 37.4933 93.1659 38.1186C93.7366 38.7426 94.4779 39.0559 95.3926 39.0559C96.4632 39.0559 97.2966 38.6529 97.8926 37.8495C98.4899 37.0448 98.7886 35.984 98.7886 34.6658Z" fill="white"/>
<path d="M118.138 36.1036C118.138 37.5752 117.614 38.7725 116.562 39.6968C115.406 40.7069 113.797 41.2113 111.729 41.2113C109.819 41.2113 108.289 40.8525 107.13 40.1336L107.789 37.8235C109.037 38.5593 110.406 38.9285 111.898 38.9285C112.969 38.9285 113.802 38.6919 114.401 38.2213C114.997 37.7507 115.294 37.1189 115.294 36.3311C115.294 35.6291 115.049 35.0376 114.557 34.5579C114.067 34.0782 113.25 33.6323 112.109 33.2202C109.002 32.0905 107.45 30.4356 107.45 28.2594C107.45 26.8372 107.994 25.6711 109.083 24.7637C110.169 23.855 111.617 23.4013 113.427 23.4013C115.042 23.4013 116.383 23.6756 117.454 24.2229L116.743 26.4823C115.743 25.9519 114.613 25.6867 113.347 25.6867C112.347 25.6867 111.566 25.9272 111.006 26.4056C110.533 26.8333 110.295 27.3546 110.295 27.9721C110.295 28.6559 110.566 29.2214 111.11 29.666C111.583 30.0768 112.443 30.5214 113.691 31.0011C115.218 31.6004 116.339 32.3011 117.061 33.1045C117.779 33.9053 118.138 34.9076 118.138 36.1036Z" fill="white"/>
<path d="M127.537 30.5604H124.403V36.6171C124.403 38.1576 124.955 38.9272 126.062 38.9272C126.57 38.9272 126.991 38.8843 127.325 38.7985L127.403 40.9032C126.843 41.1073 126.106 41.21 125.193 41.21C124.07 41.21 123.193 40.8759 122.559 40.209C121.929 39.5408 121.611 38.4202 121.611 36.8459V30.5578H119.745V28.4778H121.611V26.1937L124.403 25.3721V28.4778H127.537V30.5604Z" fill="white"/>
<path d="M141.674 34.6151C141.674 36.5326 141.111 38.1069 139.989 39.338C138.811 40.6055 137.249 41.2373 135.301 41.2373C133.423 41.2373 131.929 40.6302 130.814 39.416C129.699 38.2018 129.142 36.6691 129.142 34.8218C129.142 32.8887 129.715 31.3053 130.866 30.0742C132.014 28.8418 133.563 28.2256 135.511 28.2256C137.389 28.2256 138.899 28.8327 140.039 30.0482C141.13 31.2273 141.674 32.7496 141.674 34.6151ZM138.725 34.7048C138.725 33.5543 138.473 32.5676 137.962 31.7447C137.366 30.7489 136.514 30.2523 135.41 30.2523C134.267 30.2523 133.399 30.7502 132.803 31.7447C132.293 32.5689 132.041 33.5712 132.041 34.7568C132.041 35.9073 132.293 36.894 132.803 37.7156C133.418 38.7114 134.277 39.208 135.385 39.208C136.47 39.208 137.322 38.701 137.937 37.6896C138.461 36.8511 138.725 35.854 138.725 34.7048Z" fill="white"/>
<path d="M150.914 30.9179C150.633 30.8672 150.333 30.8412 150.018 30.8412C149.018 30.8412 148.245 31.2091 147.701 31.9462C147.227 32.5962 146.99 33.4178 146.99 34.4097V40.9552H144.149L144.175 32.409C144.175 30.9712 144.139 29.6621 144.069 28.4817H146.545L146.649 30.8685H146.727C147.027 30.0482 147.501 29.3878 148.149 28.8925C148.782 28.4466 149.466 28.2243 150.203 28.2243C150.466 28.2243 150.703 28.2425 150.914 28.275V30.9179Z" fill="white"/>
<path d="M163.627 34.1276C163.627 34.6242 163.594 35.0428 163.523 35.3847H154.995C155.029 36.6171 155.441 37.5596 156.233 38.2096C156.951 38.7907 157.881 39.0819 159.022 39.0819C160.285 39.0819 161.437 38.8856 162.473 38.4917L162.918 40.4157C161.707 40.9305 160.278 41.1866 158.629 41.1866C156.645 41.1866 155.087 40.6172 153.954 39.4797C152.823 38.3422 152.257 36.8147 152.257 34.8985C152.257 33.0174 152.783 31.4509 153.838 30.2016C154.942 28.8678 156.434 28.2009 158.311 28.2009C160.155 28.2009 161.551 28.8678 162.499 30.2016C163.25 31.2611 163.627 32.5715 163.627 34.1276ZM160.917 33.4087C160.935 32.5871 160.75 31.8773 160.365 31.278C159.873 30.5071 159.117 30.1223 158.099 30.1223C157.17 30.1223 156.414 30.498 155.837 31.252C155.363 31.8513 155.082 32.5702 154.995 33.4074H160.917V33.4087Z" fill="white"/>
<path d="M66.1526 13.0117C66.1526 14.5418 65.6819 15.6936 64.7419 16.4671C63.8713 17.1808 62.6339 17.5383 61.0312 17.5383C60.2366 17.5383 59.5566 17.5045 58.9872 17.4369V9.07661C59.7299 8.95961 60.5299 8.89981 61.3939 8.89981C62.9206 8.89981 64.0712 9.22351 64.8472 9.87091C65.7166 10.6028 66.1526 11.6493 66.1526 13.0117ZM64.6793 13.0494C64.6793 12.0575 64.4099 11.297 63.8713 10.7666C63.3326 10.2375 62.5459 9.97231 61.5099 9.97231C61.0699 9.97231 60.6952 10.0009 60.3846 10.0607V16.4164C60.5566 16.4424 60.8712 16.4541 61.3286 16.4541C62.3979 16.4541 63.2233 16.1642 63.8046 15.5844C64.3859 15.0046 64.6793 14.1596 64.6793 13.0494Z" fill="white"/>
<path d="M73.9646 14.3481C73.9646 15.2906 73.6886 16.0628 73.1366 16.6686C72.5579 17.2913 71.7913 17.602 70.8339 17.602C69.9113 17.602 69.1766 17.3043 68.6286 16.7063C68.0819 16.1096 67.8086 15.3569 67.8086 14.4495C67.8086 13.5005 68.0899 12.7218 68.6553 12.1173C69.2206 11.5128 69.9806 11.2099 70.9379 11.2099C71.8606 11.2099 72.6019 11.5076 73.1633 12.1043C73.6966 12.6841 73.9646 13.4329 73.9646 14.3481ZM72.5153 14.3923C72.5153 13.8268 72.3899 13.3419 72.1406 12.9376C71.8473 12.4488 71.4299 12.2044 70.8873 12.2044C70.3259 12.2044 69.8993 12.4488 69.6059 12.9376C69.3553 13.3419 69.2313 13.8346 69.2313 14.417C69.2313 14.9825 69.3566 15.4674 69.6059 15.8717C69.9086 16.3605 70.3299 16.6049 70.8739 16.6049C71.4073 16.6049 71.8259 16.3566 72.1273 15.8587C72.3859 15.4466 72.5153 14.9578 72.5153 14.3923Z" fill="white"/>
<path d="M84.4392 11.3347L82.4726 17.4629H81.1926L80.3779 14.8018C80.1712 14.1375 80.0032 13.4771 79.8726 12.8219H79.8472C79.7259 13.4953 79.5579 14.1544 79.3419 14.8018L78.4766 17.4629H77.1819L75.3326 11.3347H76.7686L77.4792 14.248C77.6512 14.937 77.7926 15.5935 77.9059 16.2149H77.9312C78.0352 15.7027 78.2072 15.0501 78.4499 14.261L79.3419 11.336H80.4806L81.3352 14.1986C81.5419 14.8967 81.7099 15.5688 81.8392 16.2162H81.8779C81.9726 15.5857 82.1152 14.9136 82.3046 14.1986L83.0672 11.336H84.4392V11.3347Z" fill="white"/>
<path d="M91.6832 17.4629H90.2859V13.9529C90.2859 12.8713 89.8646 12.3305 89.0192 12.3305C88.6046 12.3305 88.2699 12.4787 88.0099 12.7764C87.7526 13.0741 87.6219 13.4251 87.6219 13.8268V17.4616H86.2246V13.0858C86.2246 12.5476 86.2073 11.9639 86.1739 11.3321H87.4019L87.4673 12.2902H87.5059C87.6686 11.9925 87.9112 11.7468 88.2299 11.5505C88.6086 11.3217 89.0326 11.206 89.4966 11.206C90.0832 11.206 90.5712 11.3906 90.9592 11.7611C91.4419 12.2148 91.6832 12.8921 91.6832 13.7917V17.4629Z" fill="white"/>
<path d="M95.5366 17.4629H94.1406V8.52281H95.5366V17.4629Z" fill="white"/>
<path d="M103.763 14.3481C103.763 15.2906 103.487 16.0628 102.935 16.6686C102.357 17.2913 101.589 17.602 100.633 17.602C99.7086 17.602 98.9739 17.3043 98.4272 16.7063C97.8806 16.1096 97.6072 15.3569 97.6072 14.4495C97.6072 13.5005 97.8886 12.7218 98.4539 12.1173C99.0192 11.5128 99.7792 11.2099 100.735 11.2099C101.659 11.2099 102.399 11.5076 102.962 12.1043C103.495 12.6841 103.763 13.4329 103.763 14.3481ZM102.313 14.3923C102.313 13.8268 102.187 13.3419 101.938 12.9376C101.646 12.4488 101.227 12.2044 100.686 12.2044C100.123 12.2044 99.6966 12.4488 99.4046 12.9376C99.1539 13.3419 99.0299 13.8346 99.0299 14.417C99.0299 14.9825 99.1552 15.4674 99.4046 15.8717C99.7072 16.3605 100.129 16.6049 100.673 16.6049C101.206 16.6049 101.623 16.3566 101.925 15.8587C102.185 15.4466 102.313 14.9578 102.313 14.3923Z" fill="white"/>
<path d="M110.526 17.4629H109.271L109.167 16.757H109.129C108.699 17.3199 108.087 17.602 107.293 17.602C106.699 17.602 106.219 17.4161 105.858 17.0469C105.53 16.7115 105.366 16.2942 105.366 15.7989C105.366 15.0501 105.686 14.4794 106.33 14.0842C106.973 13.689 107.877 13.4953 109.041 13.5044V13.39C109.041 12.5827 108.606 12.1797 107.735 12.1797C107.115 12.1797 106.569 12.3318 106.097 12.6334L105.813 11.739C106.397 11.3867 107.118 11.2099 107.969 11.2099C109.611 11.2099 110.435 12.0549 110.435 13.7449V16.0017C110.435 16.614 110.466 17.1015 110.526 17.4629ZM109.075 15.3569V14.4118C107.534 14.3858 106.763 14.7979 106.763 15.6468C106.763 15.9666 106.851 16.2058 107.031 16.3657C107.211 16.5256 107.441 16.6049 107.714 16.6049C108.021 16.6049 108.307 16.51 108.569 16.3215C108.831 16.1317 108.993 15.8912 109.053 15.5961C109.067 15.5298 109.075 15.4492 109.075 15.3569Z" fill="white"/>
<path d="M118.466 17.4629H117.226L117.161 16.4788H117.122C116.726 17.2276 116.051 17.602 115.103 17.602C114.346 17.602 113.715 17.3121 113.215 16.7323C112.715 16.1525 112.466 15.3998 112.466 14.4755C112.466 13.4836 112.737 12.6802 113.281 12.0666C113.807 11.4946 114.453 11.2086 115.221 11.2086C116.065 11.2086 116.655 11.4855 116.991 12.0406H117.018V8.52281H118.417V15.8119C118.417 16.4086 118.433 16.9585 118.466 17.4629ZM117.018 14.8785V13.8567C117.018 13.6799 117.005 13.5369 116.979 13.4277C116.901 13.1001 116.731 12.8245 116.474 12.6022C116.214 12.3799 115.901 12.2681 115.539 12.2681C115.018 12.2681 114.61 12.4696 114.31 12.8739C114.013 13.2782 113.862 13.7943 113.862 14.4248C113.862 15.0306 114.005 15.522 114.291 15.9003C114.594 16.3033 115.002 16.5048 115.513 16.5048C115.971 16.5048 116.338 16.3371 116.617 16.0004C116.886 15.6897 117.018 15.3153 117.018 14.8785Z" fill="white"/>
<path d="M130.417 14.3481C130.417 15.2906 130.141 16.0628 129.589 16.6686C129.01 17.2913 128.245 17.602 127.286 17.602C126.365 17.602 125.63 17.3043 125.081 16.7063C124.534 16.1096 124.261 15.3569 124.261 14.4495C124.261 13.5005 124.542 12.7218 125.107 12.1173C125.673 11.5128 126.433 11.2099 127.391 11.2099C128.313 11.2099 129.055 11.5076 129.615 12.1043C130.149 12.6841 130.417 13.4329 130.417 14.3481ZM128.969 14.3923C128.969 13.8268 128.843 13.3419 128.594 12.9376C128.299 12.4488 127.883 12.2044 127.339 12.2044C126.779 12.2044 126.353 12.4488 126.058 12.9376C125.807 13.3419 125.683 13.8346 125.683 14.417C125.683 14.9825 125.809 15.4674 126.058 15.8717C126.361 16.3605 126.782 16.6049 127.326 16.6049C127.859 16.6049 128.279 16.3566 128.581 15.8587C128.838 15.4466 128.969 14.9578 128.969 14.3923Z" fill="white"/>
<path d="M137.93 17.4629H136.534V13.9529C136.534 12.8713 136.113 12.3305 135.266 12.3305C134.851 12.3305 134.517 12.4787 134.258 12.7764C133.999 13.0741 133.87 13.4251 133.87 13.8268V17.4616H132.471V13.0858C132.471 12.5476 132.455 11.9639 132.422 11.3321H133.649L133.714 12.2902H133.753C133.917 11.9925 134.159 11.7468 134.477 11.5505C134.857 11.3217 135.279 11.206 135.745 11.206C136.33 11.206 136.818 11.3906 137.206 11.7611C137.69 12.2148 137.93 12.8921 137.93 13.7917V17.4629Z" fill="white"/>
<path d="M147.334 12.3552H145.795V15.3322C145.795 16.0888 146.069 16.4671 146.61 16.4671C146.861 16.4671 147.069 16.4463 147.233 16.4034L147.269 17.4369C146.993 17.5383 146.63 17.589 146.183 17.589C145.631 17.589 145.202 17.4252 144.891 17.0976C144.579 16.77 144.425 16.2188 144.425 15.4453V12.3552H143.506V11.3347H144.425V10.2115L145.794 9.80852V11.3334H147.333V12.3552H147.334Z" fill="white"/>
<path d="M154.731 17.4629H153.333V13.9789C153.333 12.8804 152.911 12.3305 152.067 12.3305C151.419 12.3305 150.977 12.649 150.734 13.286C150.693 13.4199 150.669 13.5837 150.669 13.7761V17.4616H149.273V8.52281H150.669V12.2161H150.695C151.135 11.544 151.766 11.2086 152.583 11.2086C153.162 11.2086 153.641 11.3932 154.021 11.7637C154.494 12.2252 154.731 12.9116 154.731 13.819V17.4629Z" fill="white"/>
<path d="M162.362 14.1089C162.362 14.3533 162.343 14.5587 162.31 14.7264H158.119C158.138 15.3322 158.338 15.7937 158.726 16.1135C159.081 16.3995 159.538 16.5425 160.098 16.5425C160.718 16.5425 161.283 16.4463 161.793 16.2526L162.011 17.199C161.415 17.4512 160.714 17.5773 159.902 17.5773C158.929 17.5773 158.162 17.2978 157.607 16.7388C157.05 16.1798 156.774 15.4297 156.774 14.4885C156.774 13.5642 157.031 12.7946 157.55 12.181C158.091 11.5258 158.823 11.1982 159.747 11.1982C160.651 11.1982 161.338 11.5258 161.802 12.181C162.177 12.701 162.362 13.3445 162.362 14.1089ZM161.029 13.7566C161.039 13.3523 160.947 13.0039 160.758 12.7101C160.515 12.3318 160.146 12.142 159.646 12.142C159.19 12.142 158.818 12.3266 158.534 12.6971C158.302 12.9922 158.165 13.3445 158.119 13.7566H161.029Z" fill="white"/>
</svg>
