<svg width="1440" height="988" viewBox="0 0 1440 988" fill="none" xmlns="http://www.w3.org/2000/svg">
<rect x="112.25" y="987.75" width="986.44" height="0.5" transform="rotate(-90 112.25 987.75)" stroke="#F5F5F5" stroke-opacity="0.08" stroke-width="0.5" stroke-linecap="round"/>
<rect x="287.25" y="987.75" width="986.44" height="0.5" transform="rotate(-90 287.25 987.75)" stroke="#F5F5F5" stroke-opacity="0.08" stroke-width="0.5" stroke-linecap="round"/>
<rect x="462.25" y="987.75" width="986.44" height="0.5" transform="rotate(-90 462.25 987.75)" stroke="#F5F5F5" stroke-opacity="0.08" stroke-width="0.5" stroke-linecap="round"/>
<rect x="627.25" y="987.75" width="986.44" height="0.5" transform="rotate(-90 627.25 987.75)" stroke="#F5F5F5" stroke-opacity="0.08" stroke-width="0.5" stroke-linecap="round"/>
<rect x="802.25" y="987.75" width="986.44" height="0.5" transform="rotate(-90 802.25 987.75)" stroke="#F5F5F5" stroke-opacity="0.08" stroke-width="0.5" stroke-linecap="round"/>
<rect x="977.25" y="987.75" width="986.44" height="0.5" transform="rotate(-90 977.25 987.75)" stroke="#F5F5F5" stroke-opacity="0.08" stroke-width="0.5" stroke-linecap="round"/>
<rect x="1152.25" y="987.75" width="986.44" height="0.5" transform="rotate(-90 1152.25 987.75)" stroke="#F5F5F5" stroke-opacity="0.08" stroke-width="0.5" stroke-linecap="round"/>
<rect x="1327.25" y="987.75" width="986.44" height="0.5" transform="rotate(-90 1327.25 987.75)" stroke="#F5F5F5" stroke-opacity="0.08" stroke-width="0.5" stroke-linecap="round"/>
<rect x="0.265021" y="0.265021" width="1439.47" height="0.530043" stroke="#F5F5F5" stroke-opacity="0.08" stroke-width="0.530043" stroke-linecap="round"/>
</svg>
