<svg width="22" height="22" viewBox="0 0 22 22" fill="none" xmlns="http://www.w3.org/2000/svg">
<path d="M1.83333 14.6666C1.83333 16.6932 1.83333 17.7066 2.47671 18.3831C2.57961 18.4914 2.69302 18.5915 2.81566 18.6822C3.58241 19.2499 4.73087 19.2499 7.02778 19.2499H7.63888C9.93584 19.2499 11.0842 19.2499 11.851 18.6822C11.9736 18.5915 12.0871 18.4914 12.1899 18.3831C12.8333 17.7066 12.8333 16.6932 12.8333 14.6666C12.8333 12.6399 12.8333 11.6266 12.1899 10.9501C12.0871 10.8418 11.9736 10.7417 11.851 10.6509C11.0842 10.0833 9.93584 10.0833 7.63888 10.0833H7.02778C4.73087 10.0833 3.58241 10.0833 2.81566 10.6509C2.69302 10.7417 2.57961 10.8418 2.47671 10.9501C1.83333 11.6266 1.83333 12.6399 1.83333 14.6666Z" stroke="#FFBD00" stroke-width="1.5" stroke-linecap="round" stroke-linejoin="round"/>
<path d="M9.16667 7.33333C9.16667 5.30665 9.16667 4.29331 9.81008 3.61676C9.91293 3.50856 10.0264 3.40848 10.149 3.31768C10.9158 2.75 12.0642 2.75 14.3611 2.75H14.9722C17.2692 2.75 18.4176 2.75 19.1844 3.31768C19.3069 3.40848 19.4204 3.50856 19.5233 3.61676C20.1667 4.29331 20.1667 5.30665 20.1667 7.33333C20.1667 9.35998 20.1667 10.3734 19.5233 11.0499C19.4204 11.1581 19.3069 11.2582 19.1844 11.349C18.4888 11.8639 17.4793 11.9118 15.5833 11.9162" stroke="#FFBD00" stroke-width="1.5" stroke-linecap="round" stroke-linejoin="round"/>
<path d="M1.83333 13.75H12.8333" stroke="#FFBD00" stroke-width="1.5" stroke-linecap="round"/>
<path d="M9.16667 6.41675H20.1667" stroke="#FFBD00" stroke-width="1.5" stroke-linecap="round"/>
<path d="M1.83333 8.25C1.83333 5.20929 4.29262 2.75 7.33333 2.75L6.54762 4.32143" stroke="#FFBD00" stroke-width="1.5" stroke-linecap="round" stroke-linejoin="round"/>
<path d="M20.1667 13.75C20.1667 16.7907 17.7073 19.25 14.6667 19.25L15.4523 17.6786" stroke="#FFBD00" stroke-width="1.5" stroke-linecap="round" stroke-linejoin="round"/>
</svg>
