<svg width="32" height="32" viewBox="0 0 32 32" fill="none" xmlns="http://www.w3.org/2000/svg">
<path d="M2.66669 21.3334C2.66669 24.2812 2.66669 25.7552 3.60251 26.7392C3.75219 26.8967 3.91715 27.0423 4.09554 27.1743C5.21081 28 6.88129 28 10.2222 28H11.1111C14.4522 28 16.1226 28 17.2379 27.1743C17.4162 27.0423 17.5812 26.8967 17.7308 26.7392C18.6667 25.7552 18.6667 24.2812 18.6667 21.3334C18.6667 18.3855 18.6667 16.9115 17.7308 15.9275C17.5812 15.77 17.4162 15.6244 17.2379 15.4924C16.1226 14.6667 14.4522 14.6667 11.1111 14.6667H10.2222C6.88129 14.6667 5.21081 14.6667 4.09554 15.4924C3.91715 15.6244 3.75219 15.77 3.60251 15.9275C2.66669 16.9115 2.66669 18.3855 2.66669 21.3334Z" stroke="#FF2CDF" stroke-width="1.5" stroke-linecap="round" stroke-linejoin="round"/>
<path d="M13.3333 10.6667C13.3333 7.71876 13.3333 6.24481 14.2692 5.26075C14.4188 5.10336 14.5838 4.95779 14.7621 4.82572C15.8774 4 17.5478 4 20.8889 4H21.7777C25.1188 4 26.7892 4 27.9045 4.82572C28.0828 4.95779 28.2478 5.10336 28.3974 5.26075C29.3333 6.24481 29.3333 7.71876 29.3333 10.6667C29.3333 13.6145 29.3333 15.0885 28.3974 16.0725C28.2478 16.23 28.0828 16.3756 27.9045 16.5076C26.8928 17.2567 25.4244 17.3263 22.6666 17.3327" stroke="#FF2CDF" stroke-width="1.5" stroke-linecap="round" stroke-linejoin="round"/>
<path d="M2.66669 20H18.6667" stroke="#FF2CDF" stroke-width="1.5" stroke-linecap="round"/>
<path d="M13.3333 9.33331H29.3333" stroke="#FF2CDF" stroke-width="1.5" stroke-linecap="round"/>
<path d="M2.66669 12C2.66669 7.57715 6.24383 4 10.6667 4L9.52383 6.28572" stroke="#FF2CDF" stroke-width="1.5" stroke-linecap="round" stroke-linejoin="round"/>
<path d="M29.3333 20C29.3333 24.4228 25.7561 28 21.3333 28L22.4761 25.7143" stroke="#FF2CDF" stroke-width="1.5" stroke-linecap="round" stroke-linejoin="round"/>
</svg>
