<svg width="89" height="35" viewBox="0 0 89 35" fill="none" xmlns="http://www.w3.org/2000/svg">
<rect width="89" height="35" rx="17.5" fill="#F5F5F5"/>
<mask id="mask0_8_1809" style="mask-type:alpha" maskUnits="userSpaceOnUse" x="10" y="8" width="19" height="19">
<circle cx="19.5" cy="17.5" r="9.5" fill="#F2F2F2"/>
</mask>
<g mask="url(#mask0_8_1809)">
<rect x="10" y="8" width="34" height="20"/>
</g>
<path d="M41.571 12.7727H42.892V18.5128C42.892 19.1236 42.7486 19.6648 42.4616 20.1364C42.1747 20.6051 41.7713 20.9744 41.2514 21.2443C40.7315 21.5114 40.1222 21.6449 39.4233 21.6449C38.7273 21.6449 38.1193 21.5114 37.5994 21.2443C37.0795 20.9744 36.6761 20.6051 36.3892 20.1364C36.1023 19.6648 35.9588 19.1236 35.9588 18.5128V12.7727H37.2756V18.4062C37.2756 18.8011 37.3622 19.152 37.5355 19.4588C37.7116 19.7656 37.9602 20.0071 38.2812 20.1832C38.6023 20.3565 38.983 20.4432 39.4233 20.4432C39.8665 20.4432 40.2486 20.3565 40.5696 20.1832C40.8935 20.0071 41.1406 19.7656 41.3111 19.4588C41.4844 19.152 41.571 18.8011 41.571 18.4062V12.7727ZM49.5664 15.0653C49.521 14.6619 49.3335 14.3494 49.0039 14.1278C48.6744 13.9034 48.2596 13.7912 47.7596 13.7912C47.4016 13.7912 47.092 13.848 46.8306 13.9616C46.5692 14.0724 46.3661 14.2259 46.2212 14.4219C46.0792 14.6151 46.0082 14.8352 46.0082 15.0824C46.0082 15.2898 46.0565 15.4687 46.1531 15.6193C46.2525 15.7699 46.3817 15.8963 46.5408 15.9986C46.7028 16.098 46.8761 16.1818 47.0607 16.25C47.2454 16.3153 47.4229 16.3693 47.5934 16.4119L48.4457 16.6335C48.7241 16.7017 49.0096 16.794 49.3022 16.9105C49.5948 17.027 49.8661 17.1804 50.1161 17.3707C50.3661 17.5611 50.5678 17.7969 50.7212 18.0781C50.8775 18.3594 50.9556 18.696 50.9556 19.0881C50.9556 19.5824 50.8278 20.0213 50.5721 20.4048C50.3192 20.7884 49.9513 21.0909 49.4684 21.3125C48.9883 21.5341 48.4073 21.6449 47.7255 21.6449C47.0721 21.6449 46.5067 21.5412 46.0295 21.3338C45.5522 21.1264 45.1786 20.8324 44.9087 20.4517C44.6388 20.0682 44.4897 19.6136 44.4613 19.0881H45.7823C45.8079 19.4034 45.9102 19.6662 46.0891 19.8764C46.271 20.0838 46.5025 20.2386 46.7837 20.3409C47.0678 20.4403 47.3789 20.4901 47.717 20.4901C48.0891 20.4901 48.4201 20.4318 48.7099 20.3153C49.0025 20.196 49.2326 20.0312 49.4002 19.821C49.5678 19.608 49.6516 19.3594 49.6516 19.0753C49.6516 18.8168 49.5778 18.6051 49.43 18.4403C49.2852 18.2756 49.0877 18.1392 48.8377 18.0312C48.5906 17.9233 48.3107 17.8281 47.9982 17.7457L46.967 17.4645C46.2681 17.2741 45.7141 16.9943 45.305 16.625C44.8988 16.2557 44.6957 15.767 44.6957 15.1591C44.6957 14.6562 44.832 14.2173 45.1048 13.8423C45.3775 13.4673 45.7468 13.1761 46.2127 12.9688C46.6786 12.7585 47.2042 12.6534 47.7894 12.6534C48.3803 12.6534 48.9016 12.7571 49.3533 12.9645C49.8079 13.1719 50.1658 13.4574 50.4272 13.821C50.6886 14.1818 50.8249 14.5966 50.8363 15.0653H49.5664ZM55.3544 21.5H52.5291V12.7727H55.4439C56.299 12.7727 57.0334 12.9474 57.647 13.2969C58.2607 13.6435 58.7308 14.142 59.0575 14.7926C59.3871 15.4403 59.5518 16.2173 59.5518 17.1236C59.5518 18.0327 59.3857 18.8139 59.0533 19.4673C58.7237 20.1207 58.2464 20.6236 57.6214 20.9759C56.9964 21.3253 56.2408 21.5 55.3544 21.5ZM53.8459 20.3494H55.282C55.9467 20.3494 56.4993 20.2244 56.9396 19.9744C57.38 19.7216 57.7095 19.3565 57.9283 18.8793C58.147 18.3991 58.2564 17.8139 58.2564 17.1236C58.2564 16.4389 58.147 15.858 57.9283 15.3807C57.7124 14.9034 57.3899 14.5412 56.9609 14.294C56.532 14.0469 55.9993 13.9233 55.3629 13.9233H53.8459V20.3494Z" fill="#1E1E1E"/>
<path d="M76 16C76 16 73.7905 19 73 19C72.2094 19 70 16 70 16" stroke="black" stroke-width="1.5" stroke-linecap="round" stroke-linejoin="round"/>
</svg>
