<svg width="382" height="212" viewBox="0 0 382 212" fill="none" xmlns="http://www.w3.org/2000/svg">
<g filter="url(#filter0_d_8_1846)">
<rect x="24" y="27" width="318" height="148" rx="12" fill="white"/>
</g>
<path d="M43.0043 59V48.8182H49.6264V50.3643H44.8487V53.1286H49.2834V54.6747H44.8487V57.4538H49.6662V59H43.0043ZM53.1002 51.3636L54.6414 54.1825L56.2075 51.3636H58.1116L55.8097 55.1818L58.1513 59H56.2572L54.6414 56.2507L53.0406 59H51.1315L53.4582 55.1818L51.1911 51.3636H53.1002ZM62.7475 59.1491C61.9852 59.1491 61.3306 58.9818 60.7837 58.647C60.2401 58.3123 59.8209 57.8499 59.5259 57.2599C59.2342 56.6667 59.0884 55.9839 59.0884 55.2116C59.0884 54.4361 59.2375 53.7517 59.5358 53.1584C59.8341 52.5618 60.2551 52.0978 60.7986 51.7663C61.3455 51.4316 61.9918 51.2642 62.7375 51.2642C63.3573 51.2642 63.9059 51.3786 64.3831 51.6072C64.8637 51.8326 65.2465 52.1525 65.5316 52.5668C65.8166 52.9777 65.979 53.4583 66.0188 54.0085H64.2986C64.229 53.6406 64.0633 53.334 63.8015 53.0888C63.5429 52.8402 63.1966 52.7159 62.7624 52.7159C62.3945 52.7159 62.0713 52.8153 61.7929 53.0142C61.5145 53.2098 61.2974 53.4915 61.1417 53.8594C60.9892 54.2273 60.913 54.6681 60.913 55.1818C60.913 55.7022 60.9892 56.1496 61.1417 56.5241C61.2941 56.8954 61.5079 57.1821 61.783 57.3842C62.0614 57.5831 62.3879 57.6825 62.7624 57.6825C63.0275 57.6825 63.2645 57.6328 63.4733 57.5334C63.6855 57.4306 63.8628 57.2831 64.0053 57.0909C64.1478 56.8987 64.2456 56.665 64.2986 56.3899H66.0188C65.9757 56.9302 65.8166 57.4091 65.5415 57.8267C65.2664 58.241 64.8919 58.5658 64.4179 58.8011C63.944 59.0331 63.3872 59.1491 62.7475 59.1491ZM69.4963 54.5256V59H67.6966V48.8182H69.4565V52.6612H69.546C69.725 52.2304 70.0018 51.8906 70.3763 51.642C70.7541 51.3902 71.2347 51.2642 71.818 51.2642C72.3483 51.2642 72.8107 51.3752 73.2051 51.5973C73.5995 51.8194 73.9045 52.1442 74.1199 52.5717C74.3386 52.9993 74.448 53.5213 74.448 54.1378V59H72.6483V54.4162C72.6483 53.9025 72.5157 53.5031 72.2506 53.218C71.9887 52.9297 71.6208 52.7855 71.1469 52.7855C70.8287 52.7855 70.5437 52.8551 70.2918 52.9943C70.0432 53.1302 69.8476 53.3274 69.7051 53.5859C69.5659 53.8445 69.4963 54.1577 69.4963 54.5256ZM78.68 59.1541C78.1961 59.1541 77.7602 59.0679 77.3724 58.8956C76.988 58.7199 76.683 58.4614 76.4577 58.12C76.2356 57.7786 76.1246 57.3577 76.1246 56.8572C76.1246 56.4264 76.2041 56.0701 76.3632 55.7884C76.5223 55.5066 76.7394 55.2812 77.0145 55.1122C77.2896 54.9432 77.5995 54.8156 77.9442 54.7294C78.2922 54.6399 78.6518 54.5753 79.023 54.5355C79.4705 54.4891 79.8334 54.4477 80.1118 54.4112C80.3902 54.3714 80.5924 54.3118 80.7183 54.2322C80.8476 54.1494 80.9122 54.0218 80.9122 53.8494V53.8196C80.9122 53.4451 80.8012 53.1551 80.5791 52.9496C80.3571 52.7441 80.0372 52.6413 79.6196 52.6413C79.1788 52.6413 78.8291 52.7375 78.5706 52.9297C78.3154 53.1219 78.143 53.349 78.0536 53.6108L76.3732 53.3722C76.5057 52.9081 76.7245 52.5204 77.0294 52.2088C77.3343 51.8939 77.7072 51.6586 78.148 51.5028C78.5888 51.3438 79.076 51.2642 79.6097 51.2642C79.9776 51.2642 80.3438 51.3073 80.7084 51.3935C81.073 51.4796 81.4061 51.6222 81.7077 51.821C82.0093 52.0166 82.2512 52.2834 82.4335 52.6214C82.6191 52.9595 82.7119 53.3821 82.7119 53.8892V59H80.9818V57.951H80.9222C80.8128 58.1631 80.6587 58.362 80.4598 58.5476C80.2643 58.7299 80.0173 58.8774 79.719 58.9901C79.4241 59.0994 79.0777 59.1541 78.68 59.1541ZM79.1473 57.8317C79.5086 57.8317 79.8218 57.7604 80.0869 57.6179C80.3521 57.4721 80.5559 57.2798 80.6984 57.0412C80.8443 56.8026 80.9172 56.5424 80.9172 56.2607V55.3608C80.8608 55.4072 80.7647 55.4503 80.6288 55.4901C80.4963 55.5298 80.3471 55.5646 80.1814 55.5945C80.0157 55.6243 79.8516 55.6508 79.6892 55.674C79.5268 55.6972 79.3859 55.7171 79.2666 55.7337C78.9982 55.7701 78.7579 55.8298 78.5457 55.9126C78.3336 55.9955 78.1662 56.1115 78.0436 56.2607C77.921 56.4065 77.8597 56.5954 77.8597 56.8274C77.8597 57.1589 77.9806 57.4091 78.2226 57.5781C78.4645 57.7472 78.7728 57.8317 79.1473 57.8317ZM86.5213 54.5256V59H84.7216V51.3636H86.4418V52.6612H86.5312C86.7069 52.2337 86.987 51.8939 87.3714 51.642C87.7592 51.3902 88.2382 51.2642 88.8082 51.2642C89.3352 51.2642 89.7943 51.3769 90.1854 51.6023C90.5798 51.8277 90.8847 52.1541 91.1001 52.5817C91.3189 53.0092 91.4266 53.5279 91.4233 54.1378V59H89.6236V54.4162C89.6236 53.9058 89.491 53.5064 89.2259 53.218C88.964 52.9297 88.6011 52.7855 88.1371 52.7855C87.8222 52.7855 87.5421 52.8551 87.2969 52.9943C87.0549 53.1302 86.8643 53.3274 86.7251 53.5859C86.5893 53.8445 86.5213 54.1577 86.5213 54.5256ZM96.7739 62.0227C96.1276 62.0227 95.5724 61.9349 95.1084 61.7592C94.6444 61.5869 94.2715 61.3549 93.9898 61.0632C93.7081 60.7715 93.5125 60.4484 93.4031 60.0938L95.0239 59.701C95.0968 59.8501 95.2028 59.9976 95.342 60.1435C95.4813 60.2926 95.6685 60.4152 95.9038 60.5114C96.1425 60.6108 96.4424 60.6605 96.8037 60.6605C97.3141 60.6605 97.7367 60.5362 98.0714 60.2876C98.4062 60.0424 98.5736 59.638 98.5736 59.0746V57.6278H98.4841C98.3913 57.8134 98.2554 58.004 98.0764 58.1996C97.9008 58.3951 97.6671 58.5592 97.3754 58.6918C97.0871 58.8243 96.7241 58.8906 96.2866 58.8906C95.7 58.8906 95.168 58.7531 94.6908 58.478C94.2168 58.1996 93.839 57.7853 93.5572 57.2351C93.2788 56.6816 93.1396 55.9889 93.1396 55.157C93.1396 54.3184 93.2788 53.6108 93.5572 53.0341C93.839 52.4541 94.2185 52.0149 94.6957 51.7166C95.173 51.415 95.705 51.2642 96.2916 51.2642C96.7391 51.2642 97.107 51.3404 97.3953 51.4929C97.687 51.642 97.919 51.8227 98.0913 52.0348C98.2637 52.2436 98.3946 52.4408 98.4841 52.6264H98.5835V51.3636H100.358V59.1243C100.358 59.7772 100.203 60.3175 99.8911 60.745C99.5795 61.1726 99.1536 61.4924 98.6134 61.7045C98.0731 61.9167 97.4599 62.0227 96.7739 62.0227ZM96.7888 57.4787C97.1699 57.4787 97.4947 57.3859 97.7632 57.2003C98.0317 57.0147 98.2355 56.7479 98.3747 56.3999C98.5139 56.0518 98.5835 55.6342 98.5835 55.147C98.5835 54.6664 98.5139 54.2455 98.3747 53.8842C98.2388 53.523 98.0366 53.2429 97.7682 53.044C97.503 52.8419 97.1766 52.7408 96.7888 52.7408C96.3877 52.7408 96.053 52.8452 95.7845 53.054C95.5161 53.2628 95.3139 53.5495 95.178 53.9141C95.0421 54.2753 94.9741 54.6863 94.9741 55.147C94.9741 55.6143 95.0421 56.0237 95.178 56.375C95.3172 56.723 95.521 56.9948 95.7895 57.1903C96.0613 57.3826 96.3944 57.4787 96.7888 57.4787ZM105.784 59.1491C105.018 59.1491 104.357 58.9901 103.8 58.6719C103.246 58.3504 102.82 57.8963 102.522 57.3097C102.224 56.7197 102.075 56.0253 102.075 55.2266C102.075 54.4411 102.224 53.7517 102.522 53.1584C102.824 52.5618 103.245 52.0978 103.785 51.7663C104.325 51.4316 104.96 51.2642 105.689 51.2642C106.16 51.2642 106.604 51.3404 107.021 51.4929C107.442 51.642 107.814 51.8741 108.135 52.1889C108.46 52.5038 108.715 52.9048 108.901 53.392C109.086 53.8759 109.179 54.4527 109.179 55.1222V55.674H102.92V54.4609H107.454C107.451 54.1162 107.376 53.8097 107.23 53.5412C107.084 53.2694 106.881 53.0556 106.619 52.8999C106.36 52.7441 106.059 52.6662 105.714 52.6662C105.346 52.6662 105.023 52.7557 104.744 52.9347C104.466 53.1103 104.249 53.3423 104.093 53.6307C103.941 53.9157 103.863 54.2289 103.86 54.5703V55.6293C103.86 56.0734 103.941 56.4545 104.103 56.7727C104.266 57.0876 104.493 57.3295 104.784 57.4986C105.076 57.6643 105.417 57.7472 105.808 57.7472C106.07 57.7472 106.307 57.7107 106.519 57.6378C106.731 57.5616 106.915 57.4505 107.071 57.3047C107.227 57.1589 107.345 56.9782 107.424 56.7628L109.105 56.9517C108.998 57.3958 108.796 57.7836 108.498 58.1151C108.203 58.4432 107.825 58.6984 107.364 58.8807C106.904 59.0597 106.377 59.1491 105.784 59.1491ZM117.408 59.1342C116.808 59.1342 116.271 58.9801 115.797 58.6719C115.323 58.3636 114.949 57.9162 114.674 57.3295C114.399 56.7429 114.261 56.0303 114.261 55.1918C114.261 54.3433 114.4 53.6274 114.679 53.044C114.96 52.4574 115.34 52.0149 115.817 51.7166C116.294 51.415 116.826 51.2642 117.413 51.2642C117.861 51.2642 118.228 51.3404 118.517 51.4929C118.805 51.642 119.034 51.8227 119.203 52.0348C119.372 52.2436 119.503 52.4408 119.596 52.6264H119.67V48.8182H121.475V59H119.705V57.7969H119.596C119.503 57.9825 119.369 58.1797 119.193 58.3885C119.017 58.594 118.785 58.7696 118.497 58.9155C118.209 59.0613 117.846 59.1342 117.408 59.1342ZM117.91 57.6577C118.291 57.6577 118.616 57.5549 118.885 57.3494C119.153 57.1406 119.357 56.8506 119.496 56.4794C119.635 56.1082 119.705 55.6757 119.705 55.1818C119.705 54.688 119.635 54.2588 119.496 53.8942C119.36 53.5296 119.158 53.2462 118.89 53.044C118.625 52.8419 118.298 52.7408 117.91 52.7408C117.509 52.7408 117.174 52.8452 116.906 53.054C116.638 53.2628 116.435 53.5511 116.299 53.919C116.164 54.2869 116.096 54.7079 116.096 55.1818C116.096 55.6591 116.164 56.085 116.299 56.4595C116.439 56.8307 116.643 57.1241 116.911 57.3395C117.183 57.5516 117.516 57.6577 117.91 57.6577ZM126.973 59.1491C126.208 59.1491 125.547 58.9901 124.99 58.6719C124.436 58.3504 124.01 57.8963 123.712 57.3097C123.414 56.7197 123.265 56.0253 123.265 55.2266C123.265 54.4411 123.414 53.7517 123.712 53.1584C124.014 52.5618 124.435 52.0978 124.975 51.7663C125.515 51.4316 126.15 51.2642 126.879 51.2642C127.35 51.2642 127.794 51.3404 128.211 51.4929C128.632 51.642 129.003 51.8741 129.325 52.1889C129.65 52.5038 129.905 52.9048 130.091 53.392C130.276 53.8759 130.369 54.4527 130.369 55.1222V55.674H124.11V54.4609H128.644C128.641 54.1162 128.566 53.8097 128.42 53.5412C128.274 53.2694 128.07 53.0556 127.809 52.8999C127.55 52.7441 127.248 52.6662 126.904 52.6662C126.536 52.6662 126.213 52.7557 125.934 52.9347C125.656 53.1103 125.439 53.3423 125.283 53.6307C125.131 53.9157 125.053 54.2289 125.049 54.5703V55.6293C125.049 56.0734 125.131 56.4545 125.293 56.7727C125.455 57.0876 125.682 57.3295 125.974 57.4986C126.266 57.6643 126.607 57.7472 126.998 57.7472C127.26 57.7472 127.497 57.7107 127.709 57.6378C127.921 57.5616 128.105 57.4505 128.261 57.3047C128.417 57.1589 128.534 56.9782 128.614 56.7628L130.294 56.9517C130.188 57.3958 129.986 57.7836 129.688 58.1151C129.393 58.4432 129.015 58.6984 128.554 58.8807C128.094 59.0597 127.567 59.1491 126.973 59.1491ZM135.905 51.3636V52.7557H131.515V51.3636H135.905ZM132.599 49.5341H134.398V56.7031C134.398 56.9451 134.435 57.1307 134.508 57.2599C134.584 57.3859 134.683 57.4721 134.806 57.5185C134.929 57.5649 135.065 57.5881 135.214 57.5881C135.326 57.5881 135.429 57.5798 135.522 57.5632C135.618 57.5466 135.691 57.5317 135.741 57.5185L136.044 58.9254C135.948 58.9586 135.81 58.995 135.631 59.0348C135.456 59.0746 135.24 59.0978 134.985 59.1044C134.534 59.1177 134.128 59.0497 133.767 58.9006C133.406 58.7481 133.119 58.5128 132.907 58.1946C132.698 57.8764 132.595 57.4787 132.599 57.0014V49.5341ZM139.807 59.1541C139.323 59.1541 138.888 59.0679 138.5 58.8956C138.115 58.7199 137.81 58.4614 137.585 58.12C137.363 57.7786 137.252 57.3577 137.252 56.8572C137.252 56.4264 137.331 56.0701 137.491 55.7884C137.65 55.5066 137.867 55.2812 138.142 55.1122C138.417 54.9432 138.727 54.8156 139.072 54.7294C139.42 54.6399 139.779 54.5753 140.15 54.5355C140.598 54.4891 140.961 54.4477 141.239 54.4112C141.518 54.3714 141.72 54.3118 141.846 54.2322C141.975 54.1494 142.04 54.0218 142.04 53.8494V53.8196C142.04 53.4451 141.929 53.1551 141.706 52.9496C141.484 52.7441 141.165 52.6413 140.747 52.6413C140.306 52.6413 139.956 52.7375 139.698 52.9297C139.443 53.1219 139.27 53.349 139.181 53.6108L137.5 53.3722C137.633 52.9081 137.852 52.5204 138.157 52.2088C138.462 51.8939 138.835 51.6586 139.275 51.5028C139.716 51.3438 140.203 51.2642 140.737 51.2642C141.105 51.2642 141.471 51.3073 141.836 51.3935C142.2 51.4796 142.533 51.6222 142.835 51.821C143.137 52.0166 143.379 52.2834 143.561 52.6214C143.746 52.9595 143.839 53.3821 143.839 53.8892V59H142.109V57.951H142.05C141.94 58.1631 141.786 58.362 141.587 58.5476C141.392 58.7299 141.145 58.8774 140.846 58.9901C140.551 59.0994 140.205 59.1541 139.807 59.1541ZM140.275 57.8317C140.636 57.8317 140.949 57.7604 141.214 57.6179C141.479 57.4721 141.683 57.2798 141.826 57.0412C141.972 56.8026 142.045 56.5424 142.045 56.2607V55.3608C141.988 55.4072 141.892 55.4503 141.756 55.4901C141.624 55.5298 141.474 55.5646 141.309 55.5945C141.143 55.6243 140.979 55.6508 140.817 55.674C140.654 55.6972 140.513 55.7171 140.394 55.7337C140.125 55.7701 139.885 55.8298 139.673 55.9126C139.461 55.9955 139.294 56.1115 139.171 56.2607C139.048 56.4065 138.987 56.5954 138.987 56.8274C138.987 57.1589 139.108 57.4091 139.35 57.5781C139.592 57.7472 139.9 57.8317 140.275 57.8317ZM145.849 59V51.3636H147.649V59H145.849ZM146.754 50.2798C146.469 50.2798 146.223 50.1854 146.018 49.9964C145.812 49.8042 145.71 49.5739 145.71 49.3054C145.71 49.0336 145.812 48.8033 146.018 48.6143C146.223 48.4221 146.469 48.326 146.754 48.326C147.042 48.326 147.287 48.4221 147.49 48.6143C147.695 48.8033 147.798 49.0336 147.798 49.3054C147.798 49.5739 147.695 49.8042 147.49 49.9964C147.287 50.1854 147.042 50.2798 146.754 50.2798ZM151.499 48.8182V59H149.699V48.8182H151.499ZM159.585 53.3821L157.945 53.5611C157.898 53.3954 157.817 53.2396 157.701 53.0938C157.588 52.9479 157.436 52.8303 157.244 52.7408C157.051 52.6513 156.816 52.6065 156.538 52.6065C156.163 52.6065 155.848 52.6877 155.593 52.8501C155.341 53.0125 155.217 53.223 155.22 53.4815C155.217 53.7036 155.298 53.8842 155.464 54.0234C155.633 54.1626 155.911 54.277 156.299 54.3665L157.602 54.6449C158.324 54.8007 158.861 55.0476 159.212 55.3857C159.567 55.7237 159.746 56.1662 159.749 56.7131C159.746 57.1937 159.605 57.6179 159.327 57.9858C159.052 58.3504 158.669 58.6354 158.178 58.8409C157.688 59.0464 157.124 59.1491 156.488 59.1491C155.553 59.1491 154.801 58.9536 154.231 58.5625C153.661 58.1681 153.321 57.6196 153.212 56.9169L154.967 56.7479C155.046 57.0926 155.215 57.3527 155.474 57.5284C155.732 57.7041 156.069 57.7919 156.483 57.7919C156.911 57.7919 157.254 57.7041 157.512 57.5284C157.774 57.3527 157.905 57.1357 157.905 56.8771C157.905 56.6584 157.82 56.4777 157.651 56.3352C157.486 56.1927 157.227 56.0833 156.876 56.0071L155.573 55.7337C154.841 55.5812 154.299 55.3243 153.947 54.9631C153.596 54.5985 153.422 54.1378 153.425 53.581C153.422 53.1103 153.55 52.7027 153.808 52.358C154.07 52.0099 154.433 51.7415 154.897 51.5526C155.364 51.3603 155.903 51.2642 156.513 51.2642C157.408 51.2642 158.112 51.4548 158.626 51.8359C159.143 52.2171 159.463 52.7325 159.585 53.3821Z" fill="#1E1E1E"/>
<path d="M42.6761 141.912V140.818H50.3125V141.912H47.1108V151H45.8778V141.912H42.6761ZM54.0511 151.159C53.3617 151.159 52.7569 150.995 52.2365 150.667C51.7195 150.339 51.3151 149.88 51.0234 149.29C50.7351 148.7 50.5909 148.01 50.5909 147.222C50.5909 146.426 50.7351 145.732 51.0234 145.138C51.3151 144.545 51.7195 144.085 52.2365 143.756C52.7569 143.428 53.3617 143.264 54.0511 143.264C54.7405 143.264 55.3438 143.428 55.8608 143.756C56.3812 144.085 56.7855 144.545 57.0739 145.138C57.3655 145.732 57.5114 146.426 57.5114 147.222C57.5114 148.01 57.3655 148.7 57.0739 149.29C56.7855 149.88 56.3812 150.339 55.8608 150.667C55.3438 150.995 54.7405 151.159 54.0511 151.159ZM54.0511 150.105C54.5748 150.105 55.0057 149.971 55.3438 149.702C55.6818 149.434 55.9321 149.081 56.0945 148.643C56.2569 148.206 56.3381 147.732 56.3381 147.222C56.3381 146.711 56.2569 146.236 56.0945 145.795C55.9321 145.354 55.6818 144.998 55.3438 144.726C55.0057 144.454 54.5748 144.318 54.0511 144.318C53.5275 144.318 53.0966 144.454 52.7585 144.726C52.4205 144.998 52.1702 145.354 52.0078 145.795C51.8454 146.236 51.7642 146.711 51.7642 147.222C51.7642 147.732 51.8454 148.206 52.0078 148.643C52.1702 149.081 52.4205 149.434 52.7585 149.702C53.0966 149.971 53.5275 150.105 54.0511 150.105ZM62.6234 143.364V144.358H58.666V143.364H62.6234ZM59.8194 141.534H60.9927V148.812C60.9927 149.144 61.0408 149.393 61.1369 149.558C61.2363 149.721 61.3623 149.83 61.5147 149.886C61.6705 149.939 61.8346 149.966 62.0069 149.966C62.1362 149.966 62.2422 149.959 62.3251 149.946C62.408 149.929 62.4743 149.916 62.524 149.906L62.7626 150.96C62.6831 150.99 62.572 151.02 62.4295 151.05C62.287 151.083 62.1064 151.099 61.8876 151.099C61.5562 151.099 61.2314 151.028 60.9132 150.886C60.5983 150.743 60.3365 150.526 60.1277 150.234C59.9222 149.943 59.8194 149.575 59.8194 149.131V141.534ZM66.6355 151.179C66.1516 151.179 65.7124 151.088 65.318 150.906C64.9236 150.72 64.6104 150.453 64.3784 150.105C64.1464 149.754 64.0304 149.33 64.0304 148.832C64.0304 148.395 64.1165 148.04 64.2889 147.768C64.4612 147.493 64.6916 147.278 64.9799 147.122C65.2683 146.966 65.5865 146.85 65.9345 146.774C66.2858 146.695 66.6388 146.632 66.9934 146.585C67.4574 146.526 67.8336 146.481 68.122 146.451C68.4136 146.418 68.6258 146.363 68.7583 146.287C68.8942 146.211 68.9622 146.078 68.9622 145.889V145.849C68.9622 145.359 68.8279 144.978 68.5595 144.706C68.2943 144.434 67.8916 144.298 67.3514 144.298C66.7913 144.298 66.3521 144.421 66.0339 144.666C65.7157 144.911 65.492 145.173 65.3627 145.452L64.2491 145.054C64.448 144.59 64.7131 144.229 65.0446 143.97C65.3793 143.708 65.7439 143.526 66.1383 143.423C66.536 143.317 66.9271 143.264 67.3116 143.264C67.5569 143.264 67.8386 143.294 68.1568 143.354C68.4783 143.41 68.7882 143.528 69.0865 143.707C69.3881 143.886 69.6383 144.156 69.8372 144.517C70.036 144.878 70.1355 145.362 70.1355 145.969V151H68.9622V149.966H68.9025C68.823 150.132 68.6904 150.309 68.5048 150.498C68.3192 150.687 68.0723 150.848 67.764 150.98C67.4558 151.113 67.0796 151.179 66.6355 151.179ZM66.8145 150.125C67.2785 150.125 67.6696 150.034 67.9877 149.852C68.3092 149.669 68.5512 149.434 68.7136 149.146C68.8793 148.857 68.9622 148.554 68.9622 148.236V147.162C68.9125 147.222 68.8031 147.276 68.6341 147.326C68.4683 147.372 68.2761 147.414 68.0574 147.45C67.8419 147.483 67.6315 147.513 67.426 147.54C67.2238 147.563 67.0597 147.583 66.9338 147.599C66.6288 147.639 66.3438 147.704 66.0787 147.793C65.8168 147.879 65.6047 148.01 65.4423 148.186C65.2832 148.358 65.2037 148.594 65.2037 148.892C65.2037 149.3 65.3545 149.608 65.6561 149.817C65.961 150.022 66.3471 150.125 66.8145 150.125ZM73.4503 140.818V151H72.277V140.818H73.4503Z" fill="#999999"/>
<path d="M256.255 140.818V151H254.102V142.862H254.043L251.711 144.323V142.414L254.232 140.818H256.255ZM260.45 149.608L260.395 150.155C260.352 150.592 260.269 151.028 260.146 151.462C260.027 151.9 259.901 152.296 259.769 152.651C259.639 153.005 259.535 153.284 259.455 153.486H258.083C258.133 153.29 258.201 153.017 258.287 152.665C258.373 152.317 258.454 151.926 258.531 151.492C258.607 151.058 258.655 150.616 258.675 150.165L258.7 149.608H260.45ZM262.212 149.21V147.515L266.463 140.818H267.925V143.165H267.059L264.38 147.406V147.485H270.42V149.21H262.212ZM267.099 151V148.693L267.139 147.942V140.818H269.157V151H267.099ZM275.762 151.139C275.239 151.136 274.733 151.048 274.246 150.876C273.762 150.703 273.328 150.423 272.943 150.036C272.559 149.648 272.254 149.134 272.029 148.494C271.807 147.855 271.695 147.069 271.695 146.138C271.699 145.283 271.797 144.519 271.989 143.846C272.184 143.17 272.463 142.596 272.824 142.126C273.189 141.655 273.624 141.297 274.132 141.052C274.639 140.803 275.207 140.679 275.837 140.679C276.516 140.679 277.116 140.812 277.637 141.077C278.157 141.339 278.575 141.695 278.889 142.146C279.208 142.596 279.4 143.102 279.466 143.662H277.343C277.26 143.307 277.086 143.029 276.821 142.827C276.556 142.625 276.228 142.523 275.837 142.523C275.174 142.523 274.67 142.812 274.325 143.388C273.984 143.965 273.81 144.749 273.803 145.74H273.873C274.026 145.438 274.231 145.182 274.49 144.969C274.751 144.754 275.048 144.59 275.379 144.477C275.714 144.361 276.067 144.303 276.438 144.303C277.042 144.303 277.579 144.446 278.049 144.731C278.52 145.013 278.891 145.4 279.163 145.894C279.435 146.388 279.57 146.953 279.57 147.589C279.57 148.279 279.41 148.892 279.088 149.429C278.77 149.966 278.324 150.387 277.751 150.692C277.181 150.993 276.518 151.143 275.762 151.139ZM275.752 149.449C276.084 149.449 276.38 149.369 276.642 149.21C276.904 149.051 277.11 148.836 277.259 148.564C277.408 148.292 277.482 147.987 277.482 147.649C277.482 147.311 277.408 147.008 277.259 146.739C277.113 146.471 276.911 146.257 276.652 146.098C276.394 145.939 276.099 145.859 275.767 145.859C275.519 145.859 275.288 145.906 275.076 145.999C274.867 146.091 274.683 146.221 274.524 146.386C274.369 146.552 274.246 146.744 274.156 146.963C274.067 147.179 274.022 147.409 274.022 147.654C274.022 147.982 274.097 148.282 274.246 148.554C274.398 148.826 274.604 149.043 274.862 149.205C275.124 149.368 275.421 149.449 275.752 149.449ZM285.089 151.224C284.234 151.22 283.498 151.01 282.882 150.592C282.268 150.175 281.796 149.57 281.465 148.778C281.137 147.986 280.974 147.033 280.977 145.919C280.977 144.809 281.142 143.862 281.47 143.08C281.801 142.298 282.273 141.703 282.887 141.295C283.503 140.884 284.237 140.679 285.089 140.679C285.941 140.679 286.673 140.884 287.286 141.295C287.903 141.706 288.377 142.303 288.708 143.085C289.04 143.864 289.204 144.809 289.2 145.919C289.2 147.036 289.035 147.991 288.703 148.783C288.375 149.575 287.905 150.18 287.291 150.597C286.678 151.015 285.944 151.224 285.089 151.224ZM285.089 149.439C285.672 149.439 286.138 149.146 286.486 148.559C286.834 147.972 287.006 147.092 287.003 145.919C287.003 145.147 286.923 144.504 286.764 143.99C286.609 143.476 286.387 143.09 286.098 142.832C285.813 142.573 285.477 142.444 285.089 142.444C284.509 142.444 284.045 142.734 283.697 143.314C283.349 143.894 283.173 144.762 283.17 145.919C283.17 146.701 283.248 147.354 283.404 147.878C283.563 148.398 283.786 148.789 284.075 149.051C284.363 149.31 284.701 149.439 285.089 149.439ZM295.79 151H293.483L296.998 140.818H299.773L303.282 151H300.976L298.425 143.145H298.346L295.79 151ZM295.646 146.998H301.095V148.678H295.646V146.998ZM313.386 145.909C313.386 147.019 313.176 147.964 312.755 148.743C312.337 149.522 311.767 150.117 311.044 150.528C310.325 150.935 309.516 151.139 308.618 151.139C307.713 151.139 306.901 150.934 306.182 150.523C305.463 150.112 304.895 149.517 304.477 148.738C304.059 147.959 303.85 147.016 303.85 145.909C303.85 144.799 304.059 143.854 304.477 143.075C304.895 142.296 305.463 141.703 306.182 141.295C306.901 140.884 307.713 140.679 308.618 140.679C309.516 140.679 310.325 140.884 311.044 141.295C311.767 141.703 312.337 142.296 312.755 143.075C313.176 143.854 313.386 144.799 313.386 145.909ZM311.203 145.909C311.203 145.19 311.096 144.583 310.88 144.089C310.668 143.596 310.368 143.221 309.98 142.966C309.593 142.711 309.139 142.583 308.618 142.583C308.098 142.583 307.644 142.711 307.256 142.966C306.868 143.221 306.567 143.596 306.351 144.089C306.139 144.583 306.033 145.19 306.033 145.909C306.033 146.628 306.139 147.235 306.351 147.729C306.567 148.223 306.868 148.597 307.256 148.852C307.644 149.107 308.098 149.235 308.618 149.235C309.139 149.235 309.593 149.107 309.98 148.852C310.368 148.597 310.668 148.223 310.88 147.729C311.096 147.235 311.203 146.628 311.203 145.909ZM316.161 151H313.855L317.369 140.818H320.144L323.654 151H321.347L318.796 143.145H318.717L316.161 151ZM316.017 146.998H321.466V148.678H316.017V146.998Z" fill="#1E1E1E"/>
<path d="M46.375 100H43.233V89.8182H46.5142C47.5019 89.8182 48.3471 90.022 49.0497 90.4297C49.7524 90.834 50.291 91.4157 50.6655 92.1747C51.04 92.9304 51.2273 93.8352 51.2273 94.8892C51.2273 95.9498 51.0384 96.8629 50.6605 97.6286C50.2827 98.3909 49.7325 98.9775 49.0099 99.3885C48.2874 99.7962 47.4091 100 46.375 100ZM44.4659 98.9062H46.2955C47.1373 98.9062 47.835 98.7438 48.3885 98.419C48.942 98.0942 49.3546 97.6319 49.6264 97.032C49.8982 96.4321 50.0341 95.7178 50.0341 94.8892C50.0341 94.0672 49.8999 93.3596 49.6314 92.7663C49.3629 92.1697 48.9619 91.7124 48.4283 91.3942C47.8946 91.0727 47.2301 90.9119 46.4347 90.9119H44.4659V98.9062ZM53.1364 100V92.3636H54.3097V100H53.1364ZM53.733 91.0909C53.5043 91.0909 53.3071 91.013 53.1413 90.8572C52.9789 90.7015 52.8977 90.5142 52.8977 90.2955C52.8977 90.0767 52.9789 89.8894 53.1413 89.7337C53.3071 89.5779 53.5043 89.5 53.733 89.5C53.9616 89.5 54.1572 89.5779 54.3196 89.7337C54.4853 89.8894 54.5682 90.0767 54.5682 90.2955C54.5682 90.5142 54.4853 90.7015 54.3196 90.8572C54.1572 91.013 53.9616 91.0909 53.733 91.0909ZM61.8677 94.0739L60.8137 94.3722C60.7475 94.1965 60.6497 94.0258 60.5204 93.8601C60.3945 93.6911 60.2221 93.5518 60.0034 93.4425C59.7846 93.3331 59.5046 93.2784 59.1632 93.2784C58.6958 93.2784 58.3064 93.3861 57.9949 93.6016C57.6866 93.8137 57.5325 94.0838 57.5325 94.4119C57.5325 94.7036 57.6386 94.9339 57.8507 95.103C58.0628 95.272 58.3942 95.4129 58.845 95.5256L59.9785 95.804C60.6613 95.9697 61.17 96.2232 61.5048 96.5646C61.8395 96.9027 62.0069 97.3385 62.0069 97.8722C62.0069 98.3097 61.881 98.7008 61.6291 99.0455C61.3805 99.3902 61.0325 99.6619 60.585 99.8608C60.1376 100.06 59.6172 100.159 59.024 100.159C58.2451 100.159 57.6004 99.9901 57.09 99.652C56.5796 99.3139 56.2565 98.8201 56.1206 98.1705L57.2342 97.892C57.3403 98.303 57.5408 98.6113 57.8358 98.8168C58.1341 99.0223 58.5235 99.125 59.0041 99.125C59.551 99.125 59.9851 99.009 60.3066 98.777C60.6315 98.5417 60.7939 98.2599 60.7939 97.9318C60.7939 97.6667 60.7011 97.4446 60.5154 97.2656C60.3298 97.0833 60.0448 96.9474 59.6603 96.858L58.3876 96.5597C57.6883 96.3939 57.1745 96.1371 56.8464 95.7891C56.5216 95.4377 56.3592 94.9986 56.3592 94.4716C56.3592 94.0407 56.4802 93.6596 56.7221 93.3281C56.9674 92.9967 57.3005 92.7365 57.7214 92.5476C58.1457 92.3587 58.6262 92.2642 59.1632 92.2642C59.9189 92.2642 60.5121 92.4299 60.943 92.7614C61.3772 93.0928 61.6854 93.5303 61.8677 94.0739ZM66.8754 100.159C66.1594 100.159 65.543 99.9901 65.0259 99.652C64.5089 99.3139 64.1112 98.8482 63.8327 98.255C63.5543 97.6617 63.4151 96.9839 63.4151 96.2216C63.4151 95.446 63.5576 94.7616 63.8427 94.1683C64.131 93.5717 64.5321 93.1061 65.0458 92.7713C65.5629 92.4332 66.1661 92.2642 66.8555 92.2642C67.3924 92.2642 67.8763 92.3636 68.3072 92.5625C68.738 92.7614 69.091 93.0398 69.3661 93.3977C69.6412 93.7557 69.8119 94.1733 69.8782 94.6506H68.7049C68.6154 94.3026 68.4165 93.9943 68.1083 93.7259C67.8034 93.4541 67.3924 93.3182 66.8754 93.3182C66.418 93.3182 66.0169 93.4375 65.6722 93.6761C65.3308 93.9115 65.064 94.2446 64.8718 94.6754C64.6829 95.103 64.5884 95.6051 64.5884 96.1818C64.5884 96.7718 64.6812 97.2855 64.8668 97.723C65.0558 98.1605 65.3209 98.5002 65.6623 98.7422C66.007 98.9841 66.4113 99.1051 66.8754 99.1051C67.1803 99.1051 67.457 99.0521 67.7056 98.946C67.9542 98.84 68.1647 98.6875 68.337 98.4886C68.5094 98.2898 68.632 98.0511 68.7049 97.7727H69.8782C69.8119 98.2235 69.6478 98.6295 69.386 98.9908C69.1275 99.3487 68.7844 99.6338 68.3569 99.8459C67.9326 100.055 67.4388 100.159 66.8754 100.159ZM74.6957 100.159C74.0063 100.159 73.4014 99.995 72.881 99.6669C72.364 99.3388 71.9596 98.8797 71.668 98.2898C71.3796 97.6998 71.2354 97.0104 71.2354 96.2216C71.2354 95.4261 71.3796 94.7318 71.668 94.1385C71.9596 93.5452 72.364 93.0845 72.881 92.7564C73.4014 92.4283 74.0063 92.2642 74.6957 92.2642C75.3851 92.2642 75.9883 92.4283 76.5053 92.7564C77.0257 93.0845 77.43 93.5452 77.7184 94.1385C78.0101 94.7318 78.1559 95.4261 78.1559 96.2216C78.1559 97.0104 78.0101 97.6998 77.7184 98.2898C77.43 98.8797 77.0257 99.3388 76.5053 99.6669C75.9883 99.995 75.3851 100.159 74.6957 100.159ZM74.6957 99.1051C75.2193 99.1051 75.6502 98.9709 75.9883 98.7024C76.3263 98.4339 76.5766 98.081 76.739 97.6435C76.9014 97.206 76.9826 96.732 76.9826 96.2216C76.9826 95.7112 76.9014 95.2356 76.739 94.7947C76.5766 94.3539 76.3263 93.9976 75.9883 93.7259C75.6502 93.4541 75.2193 93.3182 74.6957 93.3182C74.172 93.3182 73.7411 93.4541 73.4031 93.7259C73.065 93.9976 72.8147 94.3539 72.6523 94.7947C72.4899 95.2356 72.4087 95.7112 72.4087 96.2216C72.4087 96.732 72.4899 97.206 72.6523 97.6435C72.8147 98.081 73.065 98.4339 73.4031 98.7024C73.7411 98.9709 74.172 99.1051 74.6957 99.1051ZM84.7594 96.8778V92.3636H85.9327V100H84.7594V98.7074H84.6799C84.5009 99.0952 84.2225 99.425 83.8446 99.6967C83.4668 99.9652 82.9895 100.099 82.4128 100.099C81.9355 100.099 81.5113 99.995 81.1401 99.7862C80.7689 99.5741 80.4772 99.2559 80.2651 98.8317C80.053 98.4041 79.9469 97.8655 79.9469 97.2159V92.3636H81.1202V97.1364C81.1202 97.6932 81.276 98.1373 81.5875 98.4688C81.9024 98.8002 82.3034 98.9659 82.7907 98.9659C83.0823 98.9659 83.379 98.8913 83.6806 98.7422C83.9855 98.593 84.2407 98.3643 84.4462 98.0561C84.655 97.7479 84.7594 97.3551 84.7594 96.8778ZM89.255 95.4062V100H88.0817V92.3636H89.2152V93.5568H89.3146C89.4936 93.169 89.7654 92.8575 90.13 92.6222C90.4946 92.3835 90.9652 92.2642 91.5419 92.2642C92.0589 92.2642 92.5114 92.3703 92.8991 92.5824C93.2869 92.7912 93.5885 93.1094 93.804 93.5369C94.0194 93.9612 94.1271 94.4981 94.1271 95.1477V100H92.9538V95.2273C92.9538 94.6274 92.7981 94.16 92.4865 93.8253C92.175 93.4872 91.7474 93.3182 91.2038 93.3182C90.8293 93.3182 90.4946 93.3994 90.1996 93.5618C89.9079 93.7242 89.6776 93.9612 89.5085 94.2727C89.3395 94.5843 89.255 94.9621 89.255 95.4062ZM99.5922 92.3636V93.358H95.6348V92.3636H99.5922ZM96.7882 90.5341H97.9615V97.8125C97.9615 98.1439 98.0095 98.3925 98.1056 98.5582C98.2051 98.7206 98.331 98.83 98.4835 98.8864C98.6393 98.9394 98.8033 98.9659 98.9757 98.9659C99.1049 98.9659 99.211 98.9593 99.2939 98.946C99.3767 98.9295 99.443 98.9162 99.4927 98.9062L99.7314 99.9602C99.6518 99.9901 99.5408 100.02 99.3983 100.05C99.2557 100.083 99.0751 100.099 98.8564 100.099C98.5249 100.099 98.2001 100.028 97.8819 99.8857C97.5671 99.7431 97.3052 99.526 97.0964 99.2344C96.8909 98.9427 96.7882 98.5748 96.7882 98.1307V90.5341ZM108.616 92.3636V93.358H104.658V92.3636H108.616ZM105.812 90.5341H106.985V97.8125C106.985 98.1439 107.033 98.3925 107.129 98.5582C107.229 98.7206 107.354 98.83 107.507 98.8864C107.663 98.9394 107.827 98.9659 107.999 98.9659C108.128 98.9659 108.234 98.9593 108.317 98.946C108.4 98.9295 108.466 98.9162 108.516 98.9062L108.755 99.9602C108.675 99.9901 108.564 100.02 108.422 100.05C108.279 100.083 108.099 100.099 107.88 100.099C107.548 100.099 107.224 100.028 106.905 99.8857C106.59 99.7431 106.329 99.526 106.12 99.2344C105.914 98.9427 105.812 98.5748 105.812 98.1307V90.5341ZM112.628 100.179C112.144 100.179 111.705 100.088 111.31 99.9055C110.916 99.7199 110.603 99.4531 110.371 99.1051C110.139 98.7538 110.023 98.3295 110.023 97.8324C110.023 97.3949 110.109 97.0402 110.281 96.7685C110.453 96.4934 110.684 96.2779 110.972 96.1222C111.26 95.9664 111.579 95.8504 111.927 95.7741C112.278 95.6946 112.631 95.6316 112.986 95.5852C113.45 95.5256 113.826 95.4808 114.114 95.451C114.406 95.4179 114.618 95.3632 114.751 95.2869C114.886 95.2107 114.954 95.0781 114.954 94.8892V94.8494C114.954 94.3589 114.82 93.9777 114.552 93.706C114.287 93.4342 113.884 93.2983 113.344 93.2983C112.783 93.2983 112.344 93.4209 112.026 93.6662C111.708 93.9115 111.484 94.1733 111.355 94.4517L110.241 94.054C110.44 93.59 110.705 93.2287 111.037 92.9702C111.372 92.7083 111.736 92.526 112.131 92.4233C112.528 92.3172 112.919 92.2642 113.304 92.2642C113.549 92.2642 113.831 92.294 114.149 92.3537C114.47 92.41 114.78 92.5277 115.079 92.7067C115.38 92.8857 115.631 93.1558 115.829 93.517C116.028 93.8783 116.128 94.3622 116.128 94.9688V100H114.954V98.9659H114.895C114.815 99.1316 114.683 99.3089 114.497 99.4979C114.311 99.6868 114.064 99.8475 113.756 99.9801C113.448 100.113 113.072 100.179 112.628 100.179ZM112.807 99.125C113.271 99.125 113.662 99.0339 113.98 98.8516C114.301 98.6693 114.543 98.4339 114.706 98.1456C114.872 97.8572 114.954 97.554 114.954 97.2358V96.1619C114.905 96.2216 114.795 96.2763 114.626 96.326C114.461 96.3724 114.268 96.4138 114.05 96.4503C113.834 96.4834 113.624 96.5133 113.418 96.5398C113.216 96.563 113.052 96.5829 112.926 96.5994C112.621 96.6392 112.336 96.7038 112.071 96.7933C111.809 96.8795 111.597 97.0104 111.434 97.1861C111.275 97.3584 111.196 97.5937 111.196 97.892C111.196 98.2997 111.347 98.608 111.648 98.8168C111.953 99.0223 112.339 99.125 112.807 99.125ZM119.144 92.3636L120.974 95.4858L122.803 92.3636H124.156L121.69 96.1818L124.156 100H122.803L120.974 97.0369L119.144 100H117.792L120.218 96.1818L117.792 92.3636H119.144Z" fill="#999999"/>
<path d="M272.817 100.224C271.962 100.22 271.227 100.01 270.61 99.5923C269.997 99.1747 269.525 98.5698 269.193 97.7777C268.865 96.9856 268.703 96.0327 268.706 94.919C268.706 93.8087 268.87 92.8625 269.198 92.0803C269.53 91.2981 270.002 90.7031 270.615 90.2955C271.232 89.8845 271.966 89.679 272.817 89.679C273.669 89.679 274.402 89.8845 275.015 90.2955C275.631 90.7064 276.105 91.303 276.437 92.0852C276.768 92.8641 276.932 93.8087 276.929 94.919C276.929 96.036 276.763 96.9905 276.432 97.7827C276.104 98.5748 275.633 99.1797 275.02 99.5973C274.407 100.015 273.673 100.224 272.817 100.224ZM272.817 98.4389C273.401 98.4389 273.866 98.1456 274.214 97.5589C274.563 96.9723 274.735 96.0923 274.732 94.919C274.732 94.1468 274.652 93.5038 274.493 92.9901C274.337 92.4763 274.115 92.0902 273.827 91.8317C273.542 91.5732 273.205 91.4439 272.817 91.4439C272.237 91.4439 271.773 91.7339 271.425 92.3139C271.077 92.8939 270.902 93.7623 270.898 94.919C270.898 95.7012 270.976 96.3542 271.132 96.8778C271.291 97.3982 271.515 97.7893 271.803 98.0511C272.092 98.3097 272.43 98.4389 272.817 98.4389ZM280.376 98.608L280.321 99.1548C280.278 99.5923 280.195 100.028 280.072 100.462C279.953 100.9 279.827 101.296 279.694 101.651C279.565 102.005 279.461 102.284 279.381 102.486H278.009C278.059 102.29 278.127 102.017 278.213 101.665C278.299 101.317 278.38 100.926 278.456 100.492C278.533 100.058 278.581 99.6155 278.601 99.1648L278.626 98.608H280.376ZM285.929 100.139C285.226 100.139 284.6 100.01 284.05 99.7514C283.503 99.4929 283.068 99.1366 282.747 98.6825C282.425 98.2285 282.258 97.7081 282.245 97.1214H284.333C284.356 97.5159 284.522 97.8357 284.83 98.081C285.138 98.3262 285.505 98.4489 285.929 98.4489C286.267 98.4489 286.565 98.3743 286.824 98.2251C287.086 98.0727 287.289 97.8622 287.435 97.5938C287.584 97.322 287.659 97.0104 287.659 96.6591C287.659 96.3011 287.583 95.9863 287.43 95.7145C287.281 95.4427 287.074 95.2306 286.809 95.0781C286.544 94.9257 286.24 94.8478 285.899 94.8445C285.601 94.8445 285.311 94.9058 285.029 95.0284C284.751 95.151 284.533 95.3184 284.378 95.5305L282.464 95.1875L282.946 89.8182H289.17V91.5781H284.721L284.457 94.1286H284.517C284.696 93.8767 284.966 93.6679 285.327 93.5021C285.689 93.3364 286.093 93.2536 286.54 93.2536C287.153 93.2536 287.7 93.3977 288.181 93.6861C288.662 93.9744 289.041 94.3705 289.319 94.8743C289.598 95.3748 289.735 95.9515 289.732 96.6044C289.735 97.2905 289.576 97.9003 289.255 98.4339C288.937 98.9643 288.491 99.3819 287.917 99.6868C287.347 99.9884 286.684 100.139 285.929 100.139ZM300.822 89.8182H302.975V96.4304C302.975 97.1728 302.798 97.8224 302.443 98.3793C302.092 98.9361 301.6 99.3703 300.967 99.6818C300.334 99.9901 299.596 100.144 298.754 100.144C297.909 100.144 297.17 99.9901 296.537 99.6818C295.904 99.3703 295.412 98.9361 295.06 98.3793C294.709 97.8224 294.533 97.1728 294.533 96.4304V89.8182H296.686V96.2464C296.686 96.6342 296.771 96.9789 296.94 97.2805C297.112 97.5821 297.354 97.8191 297.665 97.9915C297.977 98.1638 298.34 98.25 298.754 98.25C299.172 98.25 299.535 98.1638 299.843 97.9915C300.155 97.8191 300.395 97.5821 300.564 97.2805C300.736 96.9789 300.822 96.6342 300.822 96.2464V89.8182ZM310.27 92.7464C310.23 92.3454 310.059 92.0339 309.758 91.8118C309.456 91.5897 309.047 91.4787 308.53 91.4787C308.178 91.4787 307.882 91.5284 307.64 91.6278C307.398 91.724 307.212 91.8582 307.083 92.0305C306.957 92.2029 306.894 92.3984 306.894 92.6172C306.887 92.7995 306.925 92.9586 307.008 93.0945C307.095 93.2304 307.212 93.348 307.361 93.4474C307.51 93.5436 307.683 93.6281 307.878 93.701C308.074 93.7706 308.283 93.8303 308.505 93.88L309.42 94.0987C309.864 94.1982 310.271 94.3307 310.643 94.4964C311.014 94.6622 311.335 94.866 311.607 95.108C311.879 95.3499 312.089 95.6349 312.238 95.9631C312.391 96.2912 312.469 96.6674 312.472 97.0916C312.469 97.7147 312.31 98.255 311.995 98.7124C311.683 99.1664 311.233 99.5194 310.643 99.7713C310.056 100.02 309.348 100.144 308.52 100.144C307.698 100.144 306.982 100.018 306.372 99.7663C305.765 99.5144 305.291 99.1416 304.95 98.6477C304.612 98.1506 304.435 97.5357 304.418 96.8033H306.501C306.524 97.1446 306.622 97.4297 306.795 97.6584C306.97 97.8838 307.204 98.0545 307.496 98.1705C307.791 98.2831 308.124 98.3395 308.495 98.3395C308.859 98.3395 309.176 98.2865 309.444 98.1804C309.716 98.0743 309.927 97.9268 310.076 97.7379C310.225 97.549 310.3 97.3319 310.3 97.0866C310.3 96.858 310.232 96.6657 310.096 96.5099C309.963 96.3542 309.768 96.2216 309.509 96.1122C309.254 96.0028 308.941 95.9034 308.569 95.8139L307.461 95.5355C306.602 95.3267 305.925 95.0002 305.427 94.5561C304.93 94.112 304.683 93.5137 304.687 92.7614C304.683 92.1449 304.847 91.6063 305.179 91.1456C305.514 90.6849 305.973 90.3253 306.556 90.0668C307.139 89.8082 307.802 89.679 308.545 89.679C309.3 89.679 309.96 89.8082 310.523 90.0668C311.09 90.3253 311.531 90.6849 311.846 91.1456C312.161 91.6063 312.323 92.1399 312.333 92.7464H310.27ZM317.529 100H313.92V89.8182H317.559C318.583 89.8182 319.465 90.022 320.204 90.4297C320.943 90.834 321.512 91.4157 321.909 92.1747C322.31 92.9337 322.511 93.8419 322.511 94.8991C322.511 95.9598 322.31 96.8712 321.909 97.6335C321.512 98.3958 320.94 98.9808 320.194 99.3885C319.452 99.7962 318.564 100 317.529 100ZM316.073 98.1555H317.44C318.076 98.1555 318.612 98.0429 319.046 97.8175C319.483 97.5888 319.811 97.2358 320.03 96.7585C320.252 96.2779 320.363 95.6581 320.363 94.8991C320.363 94.1468 320.252 93.532 320.03 93.0547C319.811 92.5774 319.485 92.2261 319.051 92.0007C318.617 91.7753 318.081 91.6626 317.445 91.6626H316.073V98.1555Z" fill="#1E1E1E"/>
<path d="M41.9991 120.507H324.001" stroke="#E0E0E0" stroke-linecap="round" stroke-dasharray="8 8"/>
<defs>
<filter id="filter0_d_8_1846" x="0" y="0" width="382" height="212" filterUnits="userSpaceOnUse" color-interpolation-filters="sRGB">
<feFlood flood-opacity="0" result="BackgroundImageFix"/>
<feColorMatrix in="SourceAlpha" type="matrix" values="0 0 0 0 0 0 0 0 0 0 0 0 0 0 0 0 0 0 127 0" result="hardAlpha"/>
<feOffset dx="8" dy="5"/>
<feGaussianBlur stdDeviation="16"/>
<feComposite in2="hardAlpha" operator="out"/>
<feColorMatrix type="matrix" values="0 0 0 0 0.117647 0 0 0 0 0.117647 0 0 0 0 0.117647 0 0 0 0.12 0"/>
<feBlend mode="normal" in2="BackgroundImageFix" result="effect1_dropShadow_8_1846"/>
<feBlend mode="normal" in="SourceGraphic" in2="effect1_dropShadow_8_1846" result="shape"/>
</filter>
</defs>
</svg>
