<svg width="221" height="221" viewBox="0 0 221 221" fill="none" xmlns="http://www.w3.org/2000/svg">
<path fill-rule="evenodd" clip-rule="evenodd" d="M117.913 89.9942C117.336 90.846 116.899 91.8342 116.463 92.8209C113.86 97.9004 110.757 103.756 109.927 109.541C108.894 117.18 110.933 122.571 114.686 126.25C119.972 131.423 129.196 132.932 137.785 130.949C146.325 129.014 154.261 123.832 157.48 116.485C159.725 111.488 159.787 105.37 156.241 98.4564C152.267 90.5956 145.035 86.5427 136.655 85.0137C133.443 84.3724 130.245 84.2681 126.89 84.3204C128.719 81.6657 130.57 78.9885 132.452 76.2801C138.867 67.6638 146.491 59.4889 154.479 52.3258C164.914 42.7172 176.565 35.1957 189.681 29.7873C190.812 29.2065 191.378 27.8135 190.905 26.6355C190.43 25.4588 189.06 24.9034 187.791 25.3466C174.174 30.9821 162.007 38.7427 151.179 48.7449C143.108 56.2658 135.119 64.5323 128.623 73.5052C125.97 77.2594 123.375 80.9542 120.955 84.7512C113.71 85.665 106.701 87.7193 101.334 90.0588C65.9231 106.203 43.7342 153.438 32.7618 189.182C32.3572 190.412 33.0103 191.687 34.2681 192.081C35.5274 192.473 36.8168 191.734 37.2214 190.504C47.8567 155.922 69.0083 109.998 103.315 94.4074C107.35 92.5743 112.507 90.996 117.913 89.9942ZM123.864 89.2736C122.667 91.0214 121.616 92.8963 120.708 94.9056C118.426 99.6644 115.39 104.902 114.563 110.133C113.766 115.884 115.12 120.037 117.9 122.762C122.349 127.12 129.794 127.932 136.684 126.271C143.759 124.7 150.522 120.691 153.094 114.54C154.801 110.632 154.777 105.976 152.092 100.679C148.738 94.1239 142.64 90.8658 135.826 89.6975C131.916 88.9282 127.851 88.8649 123.864 89.2736Z" fill="#1E1E1E"/>
<path fill-rule="evenodd" clip-rule="evenodd" d="M34.1557 191.086C33.9534 189.912 33.992 188.497 34.0319 187.081C34.0553 184.305 34.3 181.583 33.9807 179.7C32.1889 168.28 29.8978 154.608 24.5774 144.24C24.0366 143.129 22.5902 142.649 21.4342 143.254C20.2795 143.859 19.7467 145.217 20.4251 146.465C25.4345 156.318 27.4927 169.4 29.3409 180.488C29.5969 182.434 29.3209 185.736 29.2631 188.546C29.2851 191.001 29.5537 193.21 30.44 194.801C30.8804 195.737 32.3942 196.7 34.7695 195.977C38.0669 194.881 45.1303 189.746 45.8583 189.293C53.2154 184.688 59.8539 180.802 68.8598 182.255C70.0915 182.4 71.2789 181.487 71.6133 180.327C71.8101 179.029 70.874 177.763 69.6409 177.619C59.4186 176.007 51.5979 179.974 43.2664 185.278C42.8315 185.713 38.6355 188.808 35.2762 190.516C34.8647 190.652 34.5631 190.953 34.1557 191.086Z" fill="#1E1E1E"/>
</svg>
