<svg width="132" height="36" viewBox="0 0 132 36" fill="none" xmlns="http://www.w3.org/2000/svg">
<g style="mix-blend-mode:luminosity">
<path d="M38.51 11.76H41.72V24.76H38.51V11.76ZM43 19.87C43 16.65 45 14.72 48 14.72C51 14.72 53 16.65 53 19.87C53 23.09 51.07 25.04 48 25.04C44.93 25.04 43 23.16 43 19.87ZM49.82 19.87C49.82 18.1 49.13 17.06 48.03 17.06C46.93 17.06 46.25 18.06 46.25 19.87C46.25 21.68 46.93 22.67 48.03 22.67C49.13 22.67 49.84 21.68 49.84 19.88L49.82 19.87ZM54.28 25.43H57.38C57.5211 25.7637 57.7676 26.0422 58.0818 26.2227C58.396 26.4033 58.7606 26.4761 59.12 26.43C60.35 26.43 60.99 25.77 60.99 24.79V22.99H61C60.7351 23.5505 60.3067 24.0176 59.7713 24.33C59.2358 24.6424 58.6183 24.7853 58 24.74C55.65 24.74 54.09 22.95 54.09 19.87C54.09 16.79 55.58 14.87 58.09 14.87C58.7241 14.8361 59.3532 14.9996 59.8904 15.3381C60.4277 15.6766 60.8468 16.1734 61.09 16.76H61V14.95H64.18V24.69C64.18 27.04 62.1 28.51 59.04 28.51C56.26 28.5 54.48 27.23 54.3 25.44L54.28 25.43ZM61 19.87C61 18.3 60.28 17.31 59.14 17.31C58 17.31 57.3 18.31 57.3 19.87C57.3 21.43 57.99 22.35 59.14 22.35C60.29 22.35 61 21.5 61 19.87ZM65.45 19.87C65.45 16.65 67.45 14.72 70.45 14.72C73.45 14.72 75.45 16.65 75.45 19.87C75.45 23.09 73.51 25.04 70.45 25.04C67.39 25.04 65.47 23.16 65.47 19.87H65.45ZM72.27 19.87C72.27 18.1 71.57 17.06 70.48 17.06C69.39 17.06 68.7 18.06 68.7 19.87C68.7 21.68 69.38 22.67 70.48 22.67C71.58 22.67 72.29 21.68 72.29 19.88L72.27 19.87ZM76.75 12.58C76.736 12.253 76.8202 11.9293 76.9917 11.6506C77.1632 11.3718 77.4142 11.1508 77.7124 11.0159C78.0106 10.8809 78.3423 10.8383 78.6649 10.8935C78.9875 10.9486 79.2862 11.099 79.5226 11.3253C79.759 11.5517 79.9223 11.8435 79.9915 12.1634C80.0606 12.4833 80.0325 12.8166 79.9107 13.1203C79.7889 13.4241 79.579 13.6845 79.308 13.868C79.037 14.0515 78.7173 14.1497 78.39 14.15C78.1809 14.1553 77.9727 14.119 77.7777 14.0433C77.5827 13.9675 77.4046 13.8537 77.2539 13.7086C77.1032 13.5635 76.9828 13.3899 76.8998 13.1978C76.8167 13.0058 76.7726 12.7992 76.77 12.59L76.75 12.58ZM76.75 14.94H80V24.8H76.8L76.75 14.94ZM91.69 19.87C91.69 23.08 90.25 24.94 87.8 24.94C87.1728 24.9787 86.5488 24.8239 86.0123 24.4967C85.4758 24.1694 85.0527 23.6854 84.8 23.11H84.74V27.97H81.53V14.97H84.72V16.73H84.78C85.024 16.1433 85.443 15.646 85.9798 15.306C86.5167 14.966 87.1453 14.7998 87.78 14.83C90.3 14.81 91.75 16.66 91.75 19.88L91.69 19.87ZM88.42 19.87C88.42 18.31 87.69 17.3 86.56 17.3C85.43 17.3 84.72 18.3 84.71 19.87C84.7 21.44 85.43 22.43 86.56 22.43C87.69 22.43 88.48 21.5 88.48 19.88L88.42 19.87ZM97.17 14.71C99.86 14.71 101.53 15.98 101.55 18.02H98.62C98.62 17.31 98.03 16.87 97.15 16.87C96.27 16.87 95.85 17.21 95.85 17.72C95.85 18.23 96.22 18.39 96.96 18.54L99.02 18.96C101.02 19.38 101.82 20.18 101.82 21.67C101.82 23.67 99.97 25.03 97.22 25.03C94.47 25.03 92.68 23.71 92.55 21.7H95.66C95.75 22.43 96.33 22.86 97.27 22.86C98.21 22.86 98.65 22.56 98.65 22.03C98.65 21.5 98.35 21.41 97.58 21.25L95.72 20.86C93.79 20.45 92.78 19.44 92.78 17.93C92.84 15.97 94.52 14.72 97.23 14.72L97.17 14.71ZM112.57 24.79H109.46V22.94H109.4C109.226 23.5571 108.847 24.0964 108.325 24.469C107.803 24.8417 107.17 25.0254 106.53 24.99C106.047 25.0057 105.565 24.9191 105.118 24.7357C104.671 24.5524 104.267 24.2765 103.934 23.9262C103.6 23.5758 103.345 23.1589 103.184 22.7029C103.023 22.2469 102.96 21.7619 103 21.28V14.95H106.21V20.59C106.21 21.75 106.82 22.38 107.82 22.38C108.055 22.3782 108.286 22.3261 108.499 22.2273C108.712 22.1284 108.901 21.985 109.053 21.8068C109.206 21.6286 109.319 21.4197 109.384 21.1943C109.448 20.9688 109.464 20.7321 109.43 20.5V14.95H112.63L112.57 24.79ZM114.12 14.94H117.24V16.84H117.31C117.482 16.2313 117.852 15.697 118.36 15.3206C118.869 14.9443 119.488 14.7471 120.12 14.76C120.755 14.7048 121.388 14.8884 121.894 15.2749C122.401 15.6614 122.745 16.2231 122.86 16.85H123C123.2 16.2197 123.602 15.6731 124.145 15.2952C124.687 14.9172 125.34 14.7291 126 14.76C126.439 14.7433 126.877 14.8195 127.284 14.9836C127.692 15.1476 128.06 15.3959 128.365 15.7122C128.67 16.0284 128.904 16.4055 129.053 16.8187C129.203 17.2319 129.263 17.6719 129.23 18.11V24.8H126V18.93C126 17.93 125.53 17.37 124.62 17.37C124.418 17.3667 124.218 17.4071 124.033 17.4883C123.848 17.5696 123.684 17.6899 123.55 17.8409C123.416 17.992 123.316 18.1701 123.257 18.3633C123.199 18.5565 123.183 18.76 123.21 18.96V24.8H120.15V18.9C120.15 17.9 119.66 17.37 118.78 17.37C118.576 17.3684 118.374 17.4104 118.188 17.4932C118.001 17.5761 117.835 17.6978 117.699 17.8503C117.564 18.0028 117.463 18.1825 117.403 18.3773C117.342 18.5722 117.324 18.7777 117.35 18.98V24.8H114.14L114.12 14.94Z" fill="#B0B0B0"/>
<path d="M32.16 12.61C32.1601 10.6197 31.5591 8.67573 30.4357 7.03279C29.3123 5.38985 27.7188 4.1245 25.8641 3.4025C24.0094 2.68049 21.9798 2.53549 20.0413 2.98648C18.1027 3.43747 16.3456 4.46343 15 5.92997H2.52002V32.27H28.87V19.96C29.9042 19.035 30.7318 17.9023 31.2987 16.6358C31.8656 15.3693 32.1591 13.9976 32.16 12.61ZM27.09 12.61C27.092 13.5637 26.811 14.4966 26.2826 15.2906C25.7541 16.0845 25.0021 16.7039 24.1215 17.0702C23.2409 17.4366 22.2715 17.5335 21.3358 17.3486C20.4002 17.1638 19.5404 16.7055 18.8653 16.0318C18.1902 15.3581 17.7302 14.4993 17.5434 13.564C17.3566 12.6288 17.4515 11.6591 17.816 10.7778C18.1805 9.89643 18.7983 9.14306 19.5911 8.61299C20.384 8.08292 21.3163 7.79998 22.27 7.79997C23.5466 7.79997 24.7711 8.30642 25.6747 9.20818C26.5784 10.1099 27.0874 11.3334 27.09 12.61ZM23.8 27.2H7.59002V11H12.53C12.4346 11.5315 12.3844 12.0701 12.38 12.61C12.3827 15.2322 13.4255 17.7462 15.2797 19.6004C17.1338 21.4545 19.6478 22.4974 22.27 22.5C22.7827 22.4973 23.2943 22.4538 23.8 22.37V27.2Z" fill="#B0B0B0"/>
</g>
</svg>
