<svg width="147" height="38" viewBox="0 0 147 38" fill="none" xmlns="http://www.w3.org/2000/svg">
<g clip-path="url(#clip0_3_152)">
<path d="M147 8.0471C147 9.55966 145.799 10.7475 144.236 10.7475C142.689 10.7475 141.455 9.55966 141.455 8.0471C141.455 6.56658 142.689 5.37946 144.236 5.37946C145.799 5.37946 147 6.56658 147 8.0471ZM142.146 8.0471C142.146 9.23493 143.034 10.1778 144.252 10.1778C145.437 10.1778 146.309 9.23493 146.309 8.06348C146.309 6.87564 145.437 5.9164 144.236 5.9164C143.035 5.9164 142.146 6.87564 142.146 8.0471ZM143.808 9.44572H143.183V6.77808C143.525 6.71776 143.872 6.68962 144.219 6.69405C144.729 6.69405 144.96 6.77523 145.156 6.88917C145.241 6.96105 145.31 7.05105 145.355 7.1525C145.401 7.25396 145.423 7.36427 145.419 7.47526C145.419 7.76794 145.189 7.99582 144.86 8.09339V8.12543C145.123 8.22299 145.271 8.41812 145.353 8.77632C145.435 9.18295 145.485 9.34602 145.551 9.44287H144.876C144.793 9.34531 144.744 9.10176 144.66 8.7927C144.61 8.50001 144.444 8.36969 144.1 8.36969H143.804L143.808 9.44572ZM143.824 7.93316H144.121C144.466 7.93316 144.746 7.81922 144.746 7.54291C144.746 7.29865 144.565 7.13628 144.169 7.13628C144.053 7.1338 143.937 7.14479 143.824 7.16904L143.824 7.93316Z" fill="white"/>
<path d="M5.92891 38L3.8952 33.2643L10.8161 30.3603V8.03639L4.01335 4.57402L6.39573 0L16.0203 4.89803V33.7657L5.92891 38Z" fill="white"/>
<path d="M5.20492 10.7603H0V27.1593H5.20492V10.7603Z" fill="white"/>
<path d="M16.7443 38L14.7114 33.2643L21.6316 30.3603V8.03639L14.8295 4.57402L17.2119 0L26.8365 4.89803V33.7657L16.7443 38Z" fill="white"/>
<path d="M32.1675 26.0141C30.8622 24.6749 30.2092 22.5926 30.2087 19.7673V18.306C30.2017 17.4681 30.2802 16.6317 30.4429 15.8093C30.5848 15.0958 30.821 14.4039 31.1453 13.7513C31.7696 12.5008 32.6524 11.5588 33.7935 10.9255C34.9346 10.2922 36.2611 9.97577 37.773 9.97625C38.49 9.97188 39.205 10.0495 39.904 10.2077C40.5558 10.3568 41.1824 10.5986 41.764 10.9255C42.8975 11.5593 43.7805 12.4929 44.413 13.7263C45.0455 14.9597 45.3615 16.4861 45.361 18.3053V19.7666C45.361 22.5596 44.6754 24.6338 43.3043 25.9892C41.9331 27.3446 40.0814 28.0228 37.7492 28.0238C35.3339 28.0238 33.4734 27.3539 32.1675 26.0141ZM40.9514 23.7004C41.6574 22.7666 42.0104 21.415 42.0104 19.6456V18.452C42.0104 16.6176 41.6574 15.2254 40.9514 14.2754C40.2454 13.3254 39.186 12.8506 37.773 12.8511C36.3437 12.8511 35.2842 13.3342 34.5946 14.3003C33.9049 15.2664 33.5601 16.6432 33.5601 18.4307V19.6484C33.5601 21.4183 33.9049 22.7699 34.5946 23.7033C35.2842 24.6366 36.3437 25.1036 37.773 25.104C39.185 25.1021 40.2445 24.6343 40.9514 23.7004Z" fill="white"/>
<path d="M51.1999 27.6585H48.1454V10.2932H51.2251L58.7397 22.0326L59.2072 23.177L59.1092 21.9336V10.2932H62.1637V27.6585H59.1827L51.5695 15.773L51.0767 14.6286L51.1999 15.8463V27.6585Z" fill="white"/>
<path d="M75.5171 23.7617H68.545L67.2137 27.6585H63.9128L70.2942 10.2932H73.6448L80.1738 27.6585H76.8974L75.5171 23.7617ZM69.4564 21.0556H74.5568L72.142 14.2426L71.9684 13.2891L71.7969 14.2426L69.4564 21.0556Z" fill="white"/>
<path d="M81.8984 27.6585V10.2932H88.6241C90.94 10.2932 92.6236 10.6789 93.6749 11.4504C94.7262 12.2218 95.2519 13.3299 95.2519 14.7746C95.2519 15.8138 95.0425 16.6582 94.6237 17.3076C94.2049 17.9571 93.5848 18.4442 92.7636 18.7689C93.6833 19.077 94.3855 19.5437 94.87 20.169C95.3546 20.7942 95.5972 21.6436 95.5977 22.717C95.5977 24.2922 95.0516 25.51 93.9595 26.3702C92.8673 27.2305 91.1878 27.6608 88.9209 27.6613L81.8984 27.6585ZM85.0517 12.8746V17.4778H88.7473C89.8318 17.4778 90.6574 17.2913 91.2241 16.9181C91.7908 16.5449 92.0739 15.9441 92.0734 15.1157C92.0734 14.3523 91.8107 13.7881 91.2853 13.423C90.7599 13.0579 89.9057 12.8751 88.7228 12.8746H85.0517ZM85.0517 20.0593V24.9303H88.5009C89.8812 24.9303 90.8586 24.7193 91.433 24.2972C92.0074 23.8751 92.2956 23.258 92.2975 22.4457C92.2975 21.602 91.9896 20.9932 91.3739 20.619C90.7582 20.2449 89.8178 20.0581 88.5528 20.0586L85.0517 20.0593Z" fill="white"/>
<path d="M110.503 27.6585H98.0363V10.2932H110.084V13.0455H101.165V17.5021H108.729V20.2794H101.165V24.8092H110.503V27.6585Z" fill="white"/>
<path d="M112.769 27.6585V10.2932H116.022V24.6625H124.497V27.6585H112.769Z" fill="white"/>
<path d="M139.254 27.6585H126.791V10.2932H138.839V13.0455H129.921V17.5021H137.485V20.2794H129.921V24.8092H139.254V27.6585Z" fill="white"/>
</g>
<defs>
<clipPath id="clip0_3_152">
<rect width="147" height="38" fill="white"/>
</clipPath>
</defs>
</svg>
