<svg width="72" height="72" viewBox="0 0 72 72" fill="none" xmlns="http://www.w3.org/2000/svg">
<circle cx="36" cy="36" r="36" fill="white" fill-opacity="0.72"/>
<path d="M42.8906 36.846C42.5371 38.189 40.8667 39.138 37.5257 41.0361C34.296 42.8709 32.6812 43.7884 31.3798 43.4196C30.8418 43.2671 30.3516 42.9776 29.9562 42.5787C29 41.6139 29 39.7426 29 36C29 32.2574 29 30.3861 29.9562 29.4213C30.3516 29.0225 30.8418 28.7329 31.3798 28.5804C32.6812 28.2117 34.296 29.1291 37.5257 30.9639C40.8667 32.862 42.5371 33.811 42.8906 35.154C43.0365 35.7084 43.0365 36.2916 42.8906 36.846Z" stroke="#FF2CDF" stroke-width="1.5" stroke-linejoin="round"/>
</svg>
