<svg width="18" height="18" viewBox="0 0 18 18" fill="none" xmlns="http://www.w3.org/2000/svg">
<path d="M16.3954 4.04382C16.7156 4.87226 16.2666 5.43945 15.3976 5.99815C14.6963 6.44895 13.8029 6.93731 12.8563 7.77225C11.9283 8.59072 11.0226 9.57653 10.2178 10.5469C9.41618 11.5132 8.73487 12.4395 8.25345 13.1254C7.94235 13.5685 7.50825 14.2297 7.50825 14.2297C7.20211 14.714 6.65171 15.0072 6.06154 14.9998C5.47125 14.9925 4.92906 14.6859 4.63617 14.1938C3.88746 12.936 3.30972 12.4393 3.04418 12.2608C2.33368 11.7834 1.5 11.7128 1.5 10.6001C1.5 9.71655 2.24617 9.00023 3.16662 9.00023C3.81646 9.02423 4.42049 9.27975 4.95567 9.63945C5.29777 9.86933 5.66017 10.1734 6.03711 10.5736C6.47951 9.9702 7.01262 9.27398 7.61025 8.55353C8.47815 7.50728 9.50258 6.38482 10.6012 5.41587C11.6811 4.46336 12.9297 3.57176 14.2531 3.10036C15.1162 2.79298 16.0753 3.21538 16.3954 4.04382Z" stroke="#48D075" stroke-width="1.5" stroke-linecap="round" stroke-linejoin="round"/>
</svg>
