<svg width="14" height="14" viewBox="0 0 14 14" fill="none" xmlns="http://www.w3.org/2000/svg">
<path d="M13.3998 2.58341C13.2262 2.13504 12.9608 1.72787 12.6208 1.38795C12.2807 1.04803 11.8735 0.78286 11.425 0.609406C10.9003 0.412424 10.3459 0.305912 9.78553 0.294406C9.06328 0.262906 8.83453 0.253906 7.00303 0.253906C5.17153 0.253906 4.93678 0.253906 4.22053 0.294406C3.66057 0.305324 3.10659 0.411857 2.58253 0.609406C2.13398 0.782657 1.7266 1.04776 1.38653 1.3877C1.04645 1.72765 0.781197 2.13492 0.607776 2.58341C0.410754 3.10812 0.304487 3.66253 0.293526 4.22291C0.261276 4.94441 0.251526 5.17316 0.251526 7.00541C0.251526 8.83691 0.251526 9.07016 0.293526 9.78791C0.304776 10.3489 0.410526 10.9024 0.607776 11.4282C0.781684 11.8765 1.0472 12.2836 1.38735 12.6235C1.72751 12.9634 2.13482 13.2286 2.58328 13.4022C3.10635 13.6071 3.66055 13.7212 4.22203 13.7397C4.94428 13.7712 5.17303 13.7809 7.00453 13.7809C8.83603 13.7809 9.07078 13.7809 9.78703 13.7397C10.3474 13.7283 10.9017 13.622 11.4265 13.4254C11.8748 13.2515 12.282 12.9861 12.622 12.6461C12.962 12.3061 13.2274 11.899 13.4013 11.4507C13.5985 10.9257 13.7043 10.3722 13.7155 9.81116C13.7478 9.08966 13.7575 8.86091 13.7575 7.02866C13.7575 5.19641 13.7575 4.96391 13.7155 4.24616C13.7068 3.67786 13.6 3.11534 13.3998 2.58341ZM12.4863 9.73241C12.4814 10.1646 12.4025 10.5928 12.253 10.9984C12.1404 11.2901 11.968 11.5549 11.7468 11.7759C11.5257 11.9969 11.2607 12.1692 10.969 12.2817C10.5679 12.4305 10.1443 12.5094 9.71653 12.5149C9.00403 12.5479 8.80303 12.5562 6.97603 12.5562C5.14753 12.5562 4.96078 12.5562 4.23478 12.5149C3.80722 12.5097 3.38377 12.4308 2.98303 12.2817C2.69029 12.1699 2.42428 11.9979 2.20219 11.7769C1.98011 11.5558 1.8069 11.2906 1.69378 10.9984C1.54636 10.5972 1.46751 10.174 1.46053 9.74666C1.42828 9.03416 1.42078 8.83316 1.42078 7.00616C1.42078 5.17841 1.42078 4.99166 1.46053 4.26491C1.46537 3.83292 1.54427 3.40497 1.69378 2.99966C1.92253 2.40791 2.39128 1.94216 2.98303 1.71566C3.38397 1.56726 3.80729 1.48838 4.23478 1.48241C4.94803 1.45016 5.14828 1.44116 6.97603 1.44116C8.80378 1.44116 8.99128 1.44116 9.71653 1.48241C10.1443 1.48755 10.568 1.56646 10.969 1.71566C11.2607 1.82836 11.5256 2.00081 11.7468 2.22193C11.9679 2.44305 12.1403 2.70796 12.253 2.99966C12.4004 3.40087 12.4793 3.82403 12.4863 4.25141C12.5185 4.96466 12.5268 5.16491 12.5268 6.99266C12.5268 8.81966 12.5268 9.01616 12.4945 9.73316H12.4863V9.73241Z" fill="#FF2CDF"/>
</svg>
